# Blender v2.81 (sub 16) OBJ File: 'TwoDoor.blend'
# www.blender.org
mtllib TwoDoor.mtl
o Cube
v 1.279490 -2.160250 0.256813
v 1.946678 -0.965870 0.256813
v 2.473870 -2.827439 0.256812
v 3.141059 -1.633058 0.256812
v 3.698402 7.181092 -1.000000
v 5.955391 -7.970390 -1.000000
v 3.698402 7.181092 1.000000
v 5.955391 -7.970390 1.000000
v 5.056590 4.289614 1.000000
v 5.056590 4.289614 -1.000000
v 5.496005 -0.059920 -1.000000
v 5.875498 -4.039947 1.000000
v 5.496005 -0.059920 1.000000
v 5.875498 -4.039947 -1.000000
v 1.946679 -0.965870 1.275533
v 1.279490 -2.160250 1.275533
v 2.473870 -2.827439 1.275532
v 3.141059 -1.633058 1.275532
v 0.821386 -4.093736 1.461819
v 0.821386 -3.976923 1.179808
v 0.821386 -4.093736 0.897798
v 1.020798 -4.176335 1.461819
v 1.103397 -4.093736 1.179808
v 1.020798 -4.176335 0.897798
v 1.103397 -4.375746 1.461819
v 1.220209 -4.375746 1.179808
v 1.103397 -4.375746 0.897798
v 1.020798 -4.575158 1.461819
v 1.103397 -4.657756 1.179808
v 1.020798 -4.575158 0.897798
v 0.821386 -4.375746 0.780986
v 0.821386 -4.657756 1.461818
v 0.821386 -4.774569 1.179808
v 0.821386 -4.657756 0.897798
v 0.821386 -4.375746 1.578631
v 0.621975 -4.575158 1.461819
v 0.539376 -4.657756 1.179808
v 0.621975 -4.575158 0.897798
v 0.539376 -4.375746 1.461819
v 0.422564 -4.375746 1.179808
v 0.539376 -4.375746 0.897798
v 0.621975 -4.176335 1.461818
v 0.539376 -4.093736 1.179808
v 0.621975 -4.176335 0.897798
v 5.215957 9.004221 -1.250348
v 7.117936 -7.970390 -1.250348
v 5.215957 9.004221 1.250348
v 7.117936 -7.970390 1.250348
v 6.564023 5.120556 1.250348
v 6.564023 5.120556 -1.250348
v 6.656909 0.318046 -1.250348
v 6.891066 -3.841732 1.250348
v 6.656909 0.318046 1.250348
v 6.891066 -3.841732 -1.250348
v -1.279490 -2.160250 0.256813
v -1.946678 -0.965870 0.256813
v -2.473870 -2.827439 0.256812
v -3.141059 -1.633058 0.256812
v -3.698402 7.181092 -1.000000
v -5.955391 -7.970390 -1.000000
v -3.698402 7.181092 1.000000
v -5.955391 -7.970390 1.000000
v -5.056590 4.289614 1.000000
v -5.056590 4.289614 -1.000000
v 0.000000 -4.000000 1.000000
v 0.000000 -4.000000 -1.000000
v 0.000000 -7.970390 -1.000000
v 0.000000 8.000000 1.000000
v 0.000000 -7.970390 1.000000
v 0.000000 8.000000 -1.000000
v -5.496005 -0.059920 -1.000000
v -5.875498 -4.039947 1.000000
v -5.496005 -0.059920 1.000000
v -5.875498 -4.039947 -1.000000
v 0.000000 0.000000 -1.000000
v 0.000000 0.000000 1.000000
v 0.000000 4.000000 -1.000000
v 0.000000 4.000000 1.000000
v -1.946679 -0.965870 1.275533
v -1.279490 -2.160250 1.275533
v -2.473870 -2.827439 1.275532
v -3.141059 -1.633058 1.275532
v -0.821386 -4.093736 1.461819
v -0.821386 -3.976923 1.179808
v -0.821386 -4.093736 0.897798
v -1.020798 -4.176335 1.461819
v -1.103397 -4.093736 1.179808
v -1.020798 -4.176335 0.897798
v -1.103397 -4.375746 1.461819
v -1.220209 -4.375746 1.179808
v -1.103397 -4.375746 0.897798
v -1.020798 -4.575158 1.461819
v -1.103397 -4.657756 1.179808
v -1.020798 -4.575158 0.897798
v -0.821386 -4.375746 0.780986
v -0.821386 -4.657756 1.461818
v -0.821386 -4.774569 1.179808
v -0.821386 -4.657756 0.897798
v -0.821386 -4.375746 1.578631
v -0.621975 -4.575158 1.461819
v -0.539376 -4.657756 1.179808
v -0.621975 -4.575158 0.897798
v -0.539376 -4.375746 1.461819
v -0.422564 -4.375746 1.179808
v -0.539376 -4.375746 0.897798
v -0.621975 -4.176335 1.461818
v -0.539376 -4.093736 1.179808
v -0.621975 -4.176335 0.897798
v -5.215957 9.004221 -1.250348
v -7.117936 -7.970390 -1.250348
v -5.215957 9.004221 1.250348
v -7.117936 -7.970390 1.250348
v -6.564023 5.120556 1.250348
v -6.564023 5.120556 -1.250348
v 0.000000 11.023042 1.250348
v 0.000000 11.023042 -1.250348
v -6.656909 0.318046 -1.250348
v -6.891066 -3.841732 1.250348
v -6.656909 0.318046 1.250348
v -6.891066 -3.841732 -1.250348
vt 0.421208 0.343400
vt 0.427761 0.351912
vt 0.419966 0.359331
vt 0.413392 0.350796
vt 0.459257 0.363068
vt 0.407604 0.391910
vt 0.433499 0.311146
vt 0.381605 0.339414
vt 0.655846 0.755361
vt 0.492825 0.755361
vt 0.494465 0.514118
vt 0.655846 0.510838
vt 0.164352 0.755361
vt 0.000116 0.755361
vt 0.033739 0.603508
vt 0.152461 0.547742
vt 0.328589 0.755361
vt 0.331049 0.529700
vt 0.159748 0.474061
vt 0.036268 0.417462
vt 0.000116 0.260497
vt 0.169958 0.259209
vt 0.510622 0.507183
vt 0.344740 0.490552
vt 0.509621 0.256632
vt 0.679089 0.510607
vt 0.679089 0.255347
vt 0.339050 0.257926
vt 0.419901 0.171215
vt 0.411975 0.163939
vt 0.418419 0.155305
vt 0.426325 0.162605
vt 0.405563 0.122918
vt 0.457648 0.150972
vt 0.432680 0.203279
vt 0.380364 0.175801
vt 0.655846 0.999885
vt 0.494465 0.996604
vt 0.152461 0.962980
vt 0.033739 0.907214
vt 0.331049 0.981022
vt 0.156490 0.044536
vt 0.033883 0.103001
vt 0.506821 0.006095
vt 0.341210 0.025241
vt 0.675216 0.000116
vt 0.407200 0.024159
vt 0.504190 0.000045
vt 0.501601 0.076874
vt 0.408304 0.073059
vt 0.110716 0.015694
vt 0.214982 0.018747
vt 0.220785 0.050324
vt 0.112553 0.043414
vt 0.326579 0.023092
vt 0.334608 0.062425
vt 0.497465 0.199587
vt 0.402327 0.165024
vt 0.409024 0.115614
vt 0.500088 0.121760
vt 0.206397 0.146608
vt 0.102618 0.135776
vt 0.108138 0.108550
vt 0.216260 0.115787
vt 0.332444 0.117763
vt 0.004862 0.036148
vt 0.000465 0.101305
vt 0.000045 0.132348
vt 0.319573 0.156707
vt 0.008610 0.005330
vt 0.599337 0.030634
vt 0.594943 0.079349
vt 0.895718 0.042150
vt 0.892019 0.069683
vt 0.783568 0.069291
vt 0.791483 0.038176
vt 0.669187 0.073701
vt 0.679847 0.034998
vt 0.591359 0.121760
vt 0.594714 0.171508
vt 0.791440 0.166326
vt 0.783675 0.134910
vt 0.892039 0.134969
vt 0.895713 0.162505
vt 0.667621 0.129059
vt 0.999955 0.069685
vt 0.999955 0.134991
vt 0.998284 0.165991
vt 0.677841 0.168782
vt 0.998291 0.038684
vt 0.000128 0.438704
vt 0.190256 0.415617
vt 0.191782 0.463942
vt 0.250000 0.410642
vt 0.309744 0.405666
vt 0.319230 0.453002
vt 0.256489 0.463912
vt 0.499872 0.382579
vt 0.340116 0.505377
vt 0.264816 0.527290
vt 0.183775 0.520349
vt 0.155722 0.598416
vt 0.385426 0.570402
vt 0.279618 0.621130
vt 0.053312 0.739328
vt 0.499872 0.653051
vt 0.322049 0.821155
vt 0.000128 0.168233
vt 0.114574 0.250882
vt 0.177951 0.000128
vt 0.446688 0.081955
vt 0.344278 0.222867
vt 0.220382 0.200153
vt 0.159884 0.315907
vt 0.316225 0.300935
vt 0.235184 0.293994
vt 0.308218 0.357342
vt 0.180770 0.368281
vt 0.243511 0.357372
vt 0.999872 0.438704
vt 0.808218 0.463941
vt 0.809744 0.415617
vt 0.750000 0.410641
vt 0.743511 0.463912
vt 0.680770 0.453002
vt 0.690256 0.405666
vt 0.500128 0.382579
vt 0.735184 0.527290
vt 0.659884 0.505376
vt 0.816225 0.520349
vt 0.844278 0.598416
vt 0.720382 0.621130
vt 0.614574 0.570402
vt 0.946688 0.739328
vt 0.677951 0.821155
vt 0.500128 0.653051
vt 0.885426 0.250882
vt 0.999872 0.168232
vt 0.822049 0.000128
vt 0.779618 0.200153
vt 0.655722 0.222867
vt 0.553312 0.081955
vt 0.840116 0.315907
vt 0.764816 0.293993
vt 0.683775 0.300935
vt 0.691782 0.357342
vt 0.819230 0.368281
vt 0.756489 0.357371
vn 0.0000 -0.0000 1.0000
vn -0.8730 0.4877 0.0000
vn 0.4877 0.8730 0.0000
vn -0.4877 -0.8730 0.0000
vn 0.0000 0.0000 -1.0000
vn 0.0492 -0.0811 0.9955
vn 0.8730 -0.4877 -0.0000
vn -0.0728 0.1200 0.9901
vn 0.8730 0.4877 0.0000
vn -0.4877 0.8730 0.0000
vn 0.4877 -0.8730 0.0000
vn -0.0492 -0.0811 0.9955
vn -0.8730 -0.4877 -0.0000
vn 0.0728 0.1200 0.9901
vn -0.0298 -0.0935 -0.9952
vn -0.2200 -0.0166 -0.9754
vn -0.1798 -0.0105 -0.9836
vn -0.0298 -0.0935 0.9952
vn -0.2200 -0.0166 0.9754
vn 0.9447 0.3279 0.0000
vn 0.9998 0.0193 0.0000
vn 0.3610 0.9326 0.0000
vn 0.9984 0.0562 0.0000
vn 0.9985 0.0549 0.0000
vn -0.2233 -0.0085 0.9747
vn -0.1215 -0.0485 0.9914
vn -0.1798 -0.0105 0.9836
vn -0.1215 -0.0485 -0.9914
vn -0.2233 -0.0085 -0.9747
vn 0.0298 -0.0935 -0.9952
vn 0.2200 -0.0166 -0.9754
vn 0.1798 -0.0105 -0.9836
vn 0.0298 -0.0935 0.9952
vn 0.2200 -0.0166 0.9754
vn -0.9447 0.3279 0.0000
vn -0.9998 0.0193 0.0000
vn -0.3610 0.9326 0.0000
vn -0.9984 0.0562 0.0000
vn -0.9985 0.0549 0.0000
vn 0.2233 -0.0085 0.9747
vn 0.1215 -0.0485 0.9914
vn 0.1798 -0.0105 0.9836
vn 0.1215 -0.0485 -0.9914
vn 0.2233 -0.0085 -0.9747
vn 0.1566 0.3780 -0.9125
vn 0.3574 0.8629 0.3574
vn 0.3574 0.8629 -0.3574
vn 0.1566 0.3780 0.9125
vn 0.8629 0.3574 0.3574
vn 0.8629 0.3574 -0.3574
vn 0.3780 0.1566 0.9125
vn 0.3780 0.1566 -0.9125
vn 0.3780 -0.1566 -0.9125
vn 0.8629 -0.3574 0.3574
vn 0.8629 -0.3574 -0.3574
vn 0.3780 -0.1566 0.9125
vn 0.1566 -0.3780 -0.9125
vn 0.3574 -0.8629 0.3574
vn 0.3574 -0.8629 -0.3574
vn 0.1566 -0.3780 0.9125
vn -0.1566 -0.3780 -0.9125
vn -0.3574 -0.8629 0.3574
vn -0.3574 -0.8629 -0.3574
vn -0.1566 -0.3780 0.9125
vn -0.3780 -0.1566 -0.9125
vn -0.8629 -0.3574 0.3574
vn -0.8629 -0.3574 -0.3574
vn -0.3780 -0.1566 0.9125
vn -0.3780 0.1566 0.9125
vn -0.3780 0.1566 -0.9125
vn -0.8629 0.3574 0.3574
vn -0.8629 0.3574 -0.3574
vn -0.3574 0.8629 -0.3574
vn -0.1566 0.3780 0.9125
vn -0.1566 0.3780 -0.9125
vn -0.3574 0.8629 0.3574
g Cube_Cube_door
usemtl door
s off
f 1/1/1 3/2/1 4/3/1 2/4/1
f 3/2/2 17/5/2 18/6/2 4/3/2
f 1/1/3 16/7/3 17/5/3 3/2/3
f 4/3/4 18/6/4 15/8/4 2/4/4
f 67/9/5 66/10/5 14/11/5 6/12/5
f 77/13/5 70/14/5 5/15/5 10/16/5
f 75/17/5 77/13/5 10/16/5 11/18/5
f 9/19/1 7/20/1 68/21/1 78/22/1
f 12/23/6 13/24/6 18/6/6 17/5/6 16/7/6 65/25/6
f 8/26/1 12/23/1 65/25/1 69/27/1
f 66/10/5 75/17/5 11/18/5 14/11/5
f 13/24/1 9/19/1 78/22/1 76/28/1
f 16/7/7 1/1/7 2/4/7 15/8/7
f 65/25/8 16/7/8 15/8/8 18/6/8 13/24/8 76/28/8
f 55/29/1 56/30/1 58/31/1 57/32/1
f 57/32/9 58/31/9 82/33/9 81/34/9
f 55/29/10 57/32/10 81/34/10 80/35/10
f 58/31/11 56/30/11 79/36/11 82/33/11
f 67/9/5 60/37/5 74/38/5 66/10/5
f 77/13/5 64/39/5 59/40/5 70/14/5
f 75/17/5 71/41/5 64/39/5 77/13/5
f 63/42/1 78/22/1 68/21/1 61/43/1
f 72/44/12 65/25/12 80/35/12 81/34/12 82/33/12 73/45/12
f 62/46/1 69/27/1 65/25/1 72/44/1
f 66/10/5 74/38/5 71/41/5 75/17/5
f 73/45/1 76/28/1 78/22/1 63/42/1
f 80/35/13 79/36/13 56/30/13 55/29/13
f 65/25/14 76/28/14 73/45/14 82/33/14 79/36/14 80/35/14
g Cube_Cube_door_rim
usemtl door_rim
f 5/47/15 70/48/15 116/49/15 45/50/15
f 14/51/16 11/52/16 51/53/16 54/54/16
f 11/52/17 10/55/17 50/56/17 51/53/17
f 68/57/18 7/58/18 47/59/18 115/60/18
f 13/61/19 12/62/19 52/63/19 53/64/19
f 50/56/20 45/50/20 47/59/20 49/65/20
f 51/53/21 50/56/21 49/65/21 53/64/21
f 45/50/22 116/49/22 115/60/22 47/59/22
f 54/54/23 51/53/23 53/64/23 52/63/23
f 46/66/24 54/54/24 52/63/24 48/67/24
f 12/62/25 8/68/25 48/67/25 52/63/25
f 7/58/26 9/69/26 49/65/26 47/59/26
f 9/69/27 13/61/27 53/64/27 49/65/27
f 10/55/28 5/47/28 45/50/28 50/56/28
f 6/70/29 14/51/29 54/54/29 46/66/29
f 59/71/30 109/72/30 116/49/30 70/48/30
f 74/73/31 120/74/31 117/75/31 71/76/31
f 71/76/32 117/75/32 114/77/32 64/78/32
f 68/57/33 115/60/33 111/79/33 61/80/33
f 73/81/34 119/82/34 118/83/34 72/84/34
f 114/77/35 113/85/35 111/79/35 109/72/35
f 117/75/36 119/82/36 113/85/36 114/77/36
f 109/72/37 111/79/37 115/60/37 116/49/37
f 120/74/38 118/83/38 119/82/38 117/75/38
f 110/86/39 112/87/39 118/83/39 120/74/39
f 72/84/40 118/83/40 112/87/40 62/88/40
f 61/80/41 111/79/41 113/85/41 63/89/41
f 63/89/42 113/85/42 119/82/42 73/81/42
f 64/78/43 114/77/43 109/72/43 59/71/43
f 60/90/44 110/86/44 120/74/44 74/73/44
g Cube_Cube_door_knobs
usemtl door_knobs
f 31/91/45 21/92/45 24/93/45
f 20/94/46 19/95/46 22/96/46 23/97/46
f 21/92/47 20/94/47 23/97/47 24/93/47
f 19/95/48 35/98/48 22/96/48
f 23/97/49 22/96/49 25/99/49 26/100/49
f 24/93/50 23/97/50 26/100/50 27/101/50
f 22/96/51 35/98/51 25/99/51
f 31/91/52 24/93/52 27/101/52
f 31/91/53 27/101/53 30/102/53
f 26/100/54 25/99/54 28/103/54 29/104/54
f 27/101/55 26/100/55 29/104/55 30/102/55
f 25/99/56 35/98/56 28/103/56
f 31/91/57 30/102/57 34/105/57
f 29/104/58 28/103/58 32/106/58 33/107/58
f 30/102/59 29/104/59 33/107/59 34/105/59
f 28/103/60 35/98/60 32/106/60
f 31/91/61 34/108/61 38/109/61
f 33/110/62 32/111/62 36/112/62 37/113/62
f 34/108/63 33/110/63 37/113/63 38/109/63
f 32/111/64 35/98/64 36/112/64
f 31/91/65 38/109/65 41/114/65
f 37/113/66 36/112/66 39/115/66 40/116/66
f 38/109/67 37/113/67 40/116/67 41/114/67
f 36/112/68 35/98/68 39/115/68
f 39/115/69 35/98/69 42/117/69
f 31/91/70 41/114/70 44/118/70
f 40/116/71 39/115/71 42/117/71 43/119/71
f 41/114/72 40/116/72 43/119/72 44/118/72
f 44/118/73 43/119/73 20/94/73 21/92/73
f 42/117/74 35/98/74 19/95/74
f 31/91/75 44/118/75 21/92/75
f 43/119/76 42/117/76 19/95/76 20/94/76
f 95/120/75 88/121/75 85/122/75
f 84/123/76 87/124/76 86/125/76 83/126/76
f 85/122/73 88/121/73 87/124/73 84/123/73
f 83/126/74 86/125/74 99/127/74
f 87/124/71 90/128/71 89/129/71 86/125/71
f 88/121/72 91/130/72 90/128/72 87/124/72
f 86/125/69 89/129/69 99/127/69
f 95/120/70 91/130/70 88/121/70
f 95/120/65 94/131/65 91/130/65
f 90/128/66 93/132/66 92/133/66 89/129/66
f 91/130/67 94/131/67 93/132/67 90/128/67
f 89/129/68 92/133/68 99/127/68
f 95/120/61 98/134/61 94/131/61
f 93/132/62 97/135/62 96/136/62 92/133/62
f 94/131/63 98/134/63 97/135/63 93/132/63
f 92/133/64 96/136/64 99/127/64
f 95/120/57 102/137/57 98/138/57
f 97/139/58 101/140/58 100/141/58 96/142/58
f 98/138/59 102/137/59 101/140/59 97/139/59
f 96/142/60 100/141/60 99/127/60
f 95/120/53 105/143/53 102/137/53
f 101/140/54 104/144/54 103/145/54 100/141/54
f 102/137/55 105/143/55 104/144/55 101/140/55
f 100/141/56 103/145/56 99/127/56
f 103/145/51 106/146/51 99/127/51
f 95/120/52 108/147/52 105/143/52
f 104/144/49 107/148/49 106/146/49 103/145/49
f 105/143/50 108/147/50 107/148/50 104/144/50
f 108/147/47 85/122/47 84/123/47 107/148/47
f 106/146/48 83/126/48 99/127/48
f 95/120/45 85/122/45 108/147/45
f 107/148/46 84/123/46 83/126/46 106/146/46
