# Blender v2.92.0 OBJ File: 'sala.blend'
# www.blender.org
mtllib arc.mtl
o arco_resize_Cube.042
v -0.328125 -0.546875 0.875000
v 0.546875 0.328125 0.875000
v -0.328125 -0.546875 -0.875000
v 0.546875 0.328125 -0.875000
v 0.546875 0.765625 0.875000
v 0.546875 0.765625 -0.875000
v -0.765625 -0.546875 0.875000
v -0.765625 -0.546875 -0.875000
vt 0.375000 0.500000
vt 0.625000 0.500000
vt 0.625000 0.750000
vt 0.375000 0.750000
vt 0.000000 0.000000
vt 0.000000 0.000000
vt 0.000000 0.000000
vt 0.000000 0.000000
vn 0.7071 -0.7071 0.0000
vn -0.0000 0.0000 1.0000
vn 1.0000 -0.0000 0.0000
vn 0.0000 0.0000 -1.0000
vn 0.0000 -1.0000 0.0000
vn -0.7071 0.7071 0.0000
usemtl None
s off
f 3/1/1 4/2/1 2/3/1 1/4/1
f 1/4/2 2/3/2 5/5/2 7/6/2
f 4/2/3 6/7/3 5/5/3 2/3/3
f 3/1/4 8/8/4 6/7/4 4/2/4
f 3/1/5 1/4/5 7/6/5 8/8/5
f 8/8/6 7/6/6 5/5/6 6/7/6
