# Blender v2.92.0 OBJ File: 'sala.blend'
# www.blender.org
mtllib arc.mtl
o arco_resize_Cube.046
v -0.328125 -0.546875 0.875000
v 0.546875 0.328125 0.875000
v -0.328125 -0.546875 -0.875000
v 0.546875 0.328125 -0.875000
v 0.546875 0.765625 0.875000
v 0.546875 0.765625 -0.875000
v -0.765625 -0.546875 0.875000
v -0.765625 -0.546875 -0.875000
vt 0.001001 0.001001
vt 0.001001 0.998999
vt 0.998999 0.998999
vt 0.998999 0.001001
vt 0.998999 0.501001
vt 0.501001 0.501001
vt 0.501001 0.998999
vt 0.998999 0.998999
vt 0.498999 0.001001
vt 0.001001 0.001001
vt 0.001001 0.498999
vt 0.498999 0.498999
vt 0.498999 0.501001
vt 0.001001 0.501001
vt 0.001001 0.998999
vt 0.498999 0.998999
vt 0.998999 0.001001
vt 0.501001 0.001001
vt 0.501001 0.498999
vt 0.998999 0.498999
vt 0.998999 0.001001
vt 0.001001 0.001001
vt 0.001001 0.998999
vt 0.998999 0.998999
vn 0.7071 -0.7071 0.0000
vn -0.0000 0.0000 1.0000
vn 1.0000 -0.0000 0.0000
vn 0.0000 0.0000 -1.0000
vn 0.0000 -1.0000 0.0000
vn -0.7071 0.7071 0.0000
usemtl Material.007
s off
f 3/1/1 4/2/1 2/3/1 1/4/1
f 1/5/2 2/6/2 5/7/2 7/8/2
f 4/9/3 6/10/3 5/11/3 2/12/3
f 3/13/4 8/14/4 6/15/4 4/16/4
f 3/17/5 1/18/5 7/19/5 8/20/5
f 8/21/6 7/22/6 5/23/6 6/24/6
