# Blender v2.92.0 OBJ File: 'sala.blend'
# www.blender.org
mtllib arcJoinMirror.mtl
o arcJoin_resize.002_Cube.025
v -0.328124 -0.546875 -0.875000
v 0.546874 0.328125 0.000001
v -0.328125 -0.546875 0.875000
v 0.546874 0.328125 0.875000
v 0.546874 0.765626 0.000001
v 0.546874 0.765625 0.875000
v -0.765624 -0.546875 -0.875000
v -0.765625 -0.546875 0.875000
v 0.546874 -0.546874 -0.874999
v 0.546874 -0.546874 -1.312498
vt 0.998999 0.001001
vt 0.411209 0.000238
vt 0.001001 0.998999
vt 0.998999 0.998999
vt 0.270774 0.785670
vt 0.349199 0.842526
vt 0.349199 0.388180
vt 0.274737 0.450137
vt 0.498999 0.667668
vt 0.498999 0.998999
vt 0.001001 0.998999
vt 0.001001 0.667668
vt 0.498999 0.001001
vt 0.498999 0.332332
vt 0.001001 0.332332
vt 0.001001 0.001001
vt 0.498999 0.334334
vt 0.498999 0.665666
vt 0.001001 0.665666
vt 0.001001 0.334334
vt 0.411209 0.000238
vt 0.001001 0.998999
vt 0.998999 0.998999
vt 0.998999 0.001001
vt 0.998999 0.332332
vt 0.501001 0.332332
vt 0.501001 0.001001
vt 0.000238 0.000238
vt 0.000238 0.000238
vt 0.411209 0.000238
vt 0.001001 0.998999
vt 0.998999 0.334334
vt 0.998999 0.665666
vt 0.501001 0.665666
vt 0.501001 0.334334
vn 0.7071 -0.7071 -0.0000
vn 0.3482 0.3482 -0.8704
vn 1.0000 0.0000 -0.0000
vn -0.0000 -0.0000 1.0000
vn 0.0000 -1.0000 0.0000
vn -0.7071 0.7071 0.0000
vn -0.0000 -0.7071 0.7071
vn -0.2294 0.6882 -0.6882
usemtl None
s off
f 3/1/1 1/2/1 2/3/1 4/4/1
f 1/5/2 7/6/2 5/7/2 2/8/2
f 4/9/3 2/10/3 5/11/3 6/12/3
f 3/13/4 4/14/4 6/15/4 8/16/4
f 3/17/5 8/18/5 7/19/5 1/20/5
f 8/21/6 6/22/6 5/23/6 7/24/6
f 7/24/5 10/25/5 9/26/5 1/27/5
f 1/2/7 9/28/7 2/3/7
f 5/29/8 10/30/8 7/31/8
f 9/32/3 10/33/3 5/34/3 2/35/3
