# Blender v2.92.0 OBJ File: 'sala.blend'
# www.blender.org
mtllib arcJoinMirror.mtl
o arcJoinMirror_resize_Cube.009
v -0.328124 -0.546875 -0.875000
v 0.546874 0.328125 0.000001
v -0.328125 -0.546875 0.875000
v 0.546874 0.328125 0.875000
v 0.546874 0.765626 0.000001
v 0.546874 0.765625 0.875000
v -0.765624 -0.546875 -0.875000
v -0.765625 -0.546875 0.875000
v 0.546874 -0.546874 -0.874999
v 0.546874 -0.546874 -1.312498
vt 0.375000 0.500000
vt 0.375000 0.750000
vt 0.625000 0.750000
vt 0.625000 0.500000
vt 0.000000 0.000000
vt 0.000000 0.000000
vt 0.000000 0.000000
vt 0.000000 0.000000
vt 0.000000 0.000000
vt 0.375000 0.750000
vn 0.7071 -0.7071 -0.0000
vn 0.3482 0.3482 -0.8704
vn 1.0000 0.0000 -0.0000
vn -0.0000 -0.0000 1.0000
vn 0.0000 -1.0000 0.0000
vn -0.7071 0.7071 0.0000
vn -0.0000 -0.7071 0.7071
vn -0.2294 0.6882 -0.6882
usemtl None
s off
f 3/1/1 1/2/1 2/3/1 4/4/1
f 1/2/2 7/5/2 5/6/2 2/3/2
f 4/4/3 2/3/3 5/6/3 6/7/3
f 3/1/4 4/4/4 6/7/4 8/8/4
f 3/1/5 8/8/5 7/5/5 1/2/5
f 8/8/6 6/7/6 5/6/6 7/5/6
f 7/5/5 10/9/5 9/10/5 1/2/5
f 1/2/7 9/10/7 2/3/7
f 5/6/8 10/9/8 7/5/8
