# Blender v2.92.0 OBJ File: 'sala.blend'
# www.blender.org
mtllib ceilingBeam.mtl
o Suelo_resize.245_Cube.108
v 0.441396 -2.004104 -5.034964
v -0.433605 -2.004103 -5.034964
v -0.433603 -1.566604 -5.034964
v 0.441396 -1.566604 -5.034964
v 0.441396 1.495898 5.027529
v -0.433605 1.495898 5.027529
v -0.433603 1.933398 5.027529
v 0.441396 1.933397 5.027529
v 0.441395 -0.201074 -0.842611
v 0.429709 -0.201072 0.846328
v 0.429709 0.236427 0.846328
v 0.441395 0.236425 -0.842611
v -0.433604 -0.201074 -0.842611
v -0.445292 -0.201072 0.846328
v -0.445291 0.236427 0.846328
v -0.433604 0.236425 -0.842611
v 0.865079 0.236425 -0.842611
v -0.868976 0.236427 -0.842611
v -0.868976 -0.201072 -0.842611
v 0.865079 -0.201075 -0.842611
v -0.868976 -0.201072 0.846328
v -0.868974 0.236427 0.846328
v 0.865079 -0.201072 0.846328
v 0.865079 0.236427 0.846328
vt 0.898999 0.998999
vt 0.898999 0.801001
vt 0.801001 0.801001
vt 0.801001 0.998999
vt 0.198999 0.998999
vt 0.198999 0.901001
vt 0.001001 0.901001
vt 0.001001 0.998999
vt 0.898999 0.001001
vt 0.801001 0.001001
vt 0.801001 0.398999
vt 0.898999 0.398999
vt 0.798999 0.498999
vt 0.798999 0.401001
vt 0.401001 0.401001
vt 0.401001 0.498999
vt 0.598999 0.001001
vt 0.401001 0.001001
vt 0.401001 0.398999
vt 0.598999 0.398999
vt 0.398999 0.898999
vt 0.398999 0.801001
vt 0.001001 0.801001
vt 0.001001 0.898999
vt 0.798999 0.001001
vt 0.601001 0.001001
vt 0.601001 0.398999
vt 0.798999 0.398999
vt 0.498999 0.901001
vt 0.401001 0.901001
vt 0.401001 0.998999
vt 0.498999 0.998999
vt 0.401001 0.598999
vt 0.798999 0.598999
vt 0.798999 0.501001
vt 0.401001 0.501001
vt 0.398999 0.398999
vt 0.398999 0.001001
vt 0.201001 0.001001
vt 0.201001 0.398999
vt 0.001001 0.598999
vt 0.398999 0.598999
vt 0.398999 0.401001
vt 0.001001 0.401001
vt 0.998999 0.798999
vt 0.998999 0.401001
vt 0.901001 0.401001
vt 0.901001 0.798999
vt 0.598999 0.901001
vt 0.501001 0.901001
vt 0.501001 0.998999
vt 0.598999 0.998999
vt 0.001001 0.798999
vt 0.398999 0.798999
vt 0.398999 0.601001
vt 0.001001 0.601001
vt 0.198999 0.398999
vt 0.198999 0.001001
vt 0.001001 0.001001
vt 0.001001 0.398999
vt 0.401001 0.898999
vt 0.798999 0.898999
vt 0.798999 0.801001
vt 0.401001 0.801001
vt 0.998999 0.398999
vt 0.998999 0.001001
vt 0.901001 0.001001
vt 0.901001 0.398999
vt 0.798999 0.798999
vt 0.798999 0.701001
vt 0.401001 0.701001
vt 0.401001 0.798999
vt 0.898999 0.401001
vt 0.801001 0.401001
vt 0.801001 0.798999
vt 0.898999 0.798999
vt 0.298999 0.901001
vt 0.201001 0.901001
vt 0.201001 0.998999
vt 0.298999 0.998999
vt 0.398999 0.901001
vt 0.301001 0.901001
vt 0.301001 0.998999
vt 0.398999 0.998999
vt 0.401001 0.698999
vt 0.798999 0.698999
vt 0.798999 0.601001
vt 0.401001 0.601001
vn -0.0000 0.0000 -1.0000
vn 0.0000 0.0000 1.0000
vn 0.0000 1.0000 -0.0000
vn 1.0000 0.0000 -0.0028
vn 0.0000 0.9266 -0.3761
vn -1.0000 0.0000 0.0028
vn -0.0000 -0.9266 0.3761
vn 1.0000 0.0000 0.0000
vn -0.0000 -0.9186 0.3951
vn 0.0000 0.9186 -0.3951
vn -1.0000 0.0000 -0.0000
vn -0.0000 -1.0000 0.0000
usemtl Material.005
s off
f 1/1/1 2/2/1 3/3/1 4/4/1
f 5/5/2 8/6/2 7/7/2 6/8/2
f 17/9/3 12/10/3 11/11/3 24/12/3
f 8/13/4 5/14/4 10/15/4 11/16/4
f 7/17/5 8/18/5 11/19/5 15/20/5
f 6/21/6 7/22/6 15/23/6 14/24/6
f 5/25/7 6/26/7 14/27/7 10/28/7
f 11/29/2 10/30/2 23/31/2 24/32/2
f 4/33/8 12/34/8 9/35/8 1/36/8
f 1/37/9 9/38/9 13/39/9 2/40/9
f 3/41/10 16/42/10 12/43/10 4/44/10
f 2/45/11 13/46/11 16/47/11 3/48/11
f 16/49/1 13/50/1 19/51/1 18/52/1
f 9/53/12 10/54/12 14/55/12 13/56/12
f 16/57/3 15/58/3 11/59/3 12/60/3
f 23/61/8 20/62/8 17/63/8 24/64/8
f 19/65/11 21/66/11 22/67/11 18/68/11
f 23/69/12 10/70/12 9/71/12 20/72/12
f 14/73/12 21/74/12 19/75/12 13/76/12
f 9/77/1 12/78/1 17/79/1 20/80/1
f 14/81/2 15/82/2 22/83/2 21/84/2
f 18/85/3 22/86/3 15/87/3 16/88/3
