# Blender v2.92.0 OBJ File: 'sala.blend'
# www.blender.org
mtllib gate.mtl
o gate_Cube.024
v 2.625000 -1.750000 0.218750
v -2.624999 -1.750000 0.218750
v 2.625000 -1.750000 -0.218750
v -2.625004 -1.750000 -0.218750
v -2.624999 1.750000 0.218750
v -2.625000 1.750000 -0.218750
v 2.624999 1.750000 0.218750
v 2.624999 1.750000 -0.218750
v -1.968753 -1.750000 -0.218750
v -1.312503 -1.750000 -0.218750
v -0.656252 -1.750000 -0.218750
v 0.656249 -1.750000 -0.218750
v 1.312499 -1.750000 -0.218750
v 1.968749 -1.750000 -0.218750
v -1.968749 -1.750000 0.218750
v -1.312499 -1.750000 0.218750
v -0.656250 -1.750000 0.218750
v 0.656250 -1.750000 0.218750
v 1.312500 -1.750000 0.218750
v 1.968750 -1.750000 0.218750
v -1.968750 1.750000 -0.218750
v -1.312500 1.750000 -0.218750
v -0.656250 1.750000 -0.218750
v 0.656250 1.750000 -0.218750
v 1.312500 1.750000 -0.218750
v 1.968750 1.750000 -0.218750
v -1.968749 1.750000 0.218750
v -1.312499 1.750000 0.218750
v -0.656249 1.750000 0.218750
v 0.656250 1.750000 0.218750
v 1.312500 1.750000 0.218750
v 1.968750 1.750000 0.218750
v -2.624999 -1.444185 0.218750
v -2.624999 1.444185 0.218750
v -2.625002 -1.444185 -0.218750
v -2.625001 1.444185 -0.218750
v 2.624999 -1.444185 0.218750
v 2.624999 1.444185 0.218750
v 2.624999 -1.444185 -0.218750
v 2.624999 1.444185 -0.218750
v 1.968749 -1.444185 -0.218750
v 1.968750 1.444185 -0.218750
v 1.312499 -1.444185 -0.218750
v 1.312500 1.444185 -0.218750
v 0.656249 -1.444185 -0.218750
v 0.656249 1.444185 -0.218750
v -0.656251 -1.444185 -0.218750
v -0.656251 1.444185 -0.218750
v -1.312502 -1.444185 -0.218750
v -1.312501 1.444185 -0.218750
v -1.968752 -1.444185 -0.218750
v -1.968751 1.444185 -0.218750
v 1.968750 1.444185 0.218750
v 1.968750 -1.444186 0.218750
v 1.312500 1.444185 0.218750
v 1.312500 -1.444185 0.218750
v 0.656250 1.444184 0.218750
v 0.656250 -1.444186 0.218750
v -0.656249 1.444184 0.218750
v -0.656250 -1.444186 0.218750
v -1.312499 1.444185 0.218750
v -1.312499 -1.444186 0.218750
v -1.968749 1.444185 0.218750
v -1.968749 -1.444185 0.218750
v -2.296879 -1.750000 -0.218750
v -2.296874 -1.750000 0.218750
v -2.296875 1.750000 -0.218750
v -2.296874 1.750000 0.218750
v -2.296877 -1.444185 -0.218750
v -2.296876 1.444185 -0.218750
v -2.296874 -1.444185 0.218750
v -2.296874 1.444185 0.218750
v 2.296874 -1.750000 -0.218750
v 2.296875 -1.750000 0.218750
v 2.296875 1.750000 -0.218750
v 2.296875 1.750000 0.218750
v 2.296875 -1.444185 0.218750
v 2.296875 1.444185 0.218750
v 2.296874 -1.444185 -0.218750
v 2.296874 1.444185 -0.218750
v -1.640628 -1.750000 -0.218750
v -1.640624 -1.750000 0.218750
v -1.640625 1.750000 -0.218750
v -1.640624 1.750000 0.218750
v -1.640624 -1.444185 0.218750
v -1.640624 1.444185 0.218750
v -1.640627 -1.444185 -0.218750
v -1.640626 1.444185 -0.218750
v -0.984377 -1.750000 -0.218750
v -0.984374 -1.750000 0.218750
v -0.984375 1.750000 -0.218750
v -0.984374 1.750000 0.218750
v -0.984374 -1.444186 0.218750
v -0.984374 1.444185 0.218750
v -0.984377 -1.444185 -0.218750
v -0.984376 1.444185 -0.218750
v 0.984374 -1.750000 -0.218750
v 0.984375 -1.750000 0.218750
v 0.984375 1.750000 -0.218750
v 0.984375 1.750000 0.218750
v 0.984375 -1.444186 0.218750
v 0.984375 1.444185 0.218750
v 0.984374 -1.444185 -0.218750
v 0.984374 1.444185 -0.218750
v 1.640624 -1.750000 -0.218750
v 1.640625 -1.750000 0.218750
v 1.640625 1.750000 -0.218750
v 1.640625 1.750000 0.218750
v 1.640625 -1.444186 0.218750
v 1.640625 1.444185 0.218750
v 1.640624 -1.444185 -0.218750
v 1.640625 1.444185 -0.218750
vt 0.061436 0.942674
vt 0.061436 0.998999
vt 0.001001 0.998999
vt 0.001001 0.942674
vt 0.061436 0.057327
vt 0.001001 0.057327
vt 0.001001 0.001001
vt 0.061436 0.001001
vt 0.998999 0.834334
vt 0.834334 0.834334
vt 0.834334 0.998999
vt 0.998999 0.998999
vt 0.498999 0.667668
vt 0.334334 0.667668
vt 0.334334 0.832332
vt 0.498999 0.832332
vt 0.832332 0.167668
vt 0.667668 0.167668
vt 0.667668 0.332332
vt 0.832332 0.332332
vt 0.832332 0.001001
vt 0.667668 0.001001
vt 0.667668 0.165666
vt 0.832332 0.165666
vt 0.332332 0.334334
vt 0.167668 0.334334
vt 0.167668 0.498999
vt 0.332332 0.498999
vt 0.498999 0.334334
vt 0.334334 0.334334
vt 0.334334 0.498999
vt 0.498999 0.498999
vt 0.665666 0.001001
vt 0.501001 0.001001
vt 0.501001 0.165666
vt 0.665666 0.165666
vt 0.665666 0.167668
vt 0.501001 0.167668
vt 0.501001 0.332332
vt 0.665666 0.332332
vt 0.332332 0.501001
vt 0.167668 0.501001
vt 0.167668 0.665666
vt 0.332332 0.665666
vt 0.665666 0.334334
vt 0.501001 0.334334
vt 0.501001 0.498999
vt 0.665666 0.498999
vt 0.498999 0.501001
vt 0.334334 0.501001
vt 0.334334 0.665666
vt 0.498999 0.665666
vt 0.665666 0.501001
vt 0.501001 0.501001
vt 0.501001 0.665666
vt 0.665666 0.665666
vt 0.165666 0.667668
vt 0.001001 0.667668
vt 0.001001 0.832332
vt 0.165666 0.832332
vt 0.498999 0.834334
vt 0.334334 0.834334
vt 0.334334 0.998999
vt 0.498999 0.998999
vt 0.938564 0.057326
vt 0.878130 0.057326
vt 0.878130 0.001001
vt 0.938565 0.001001
vt 0.817695 0.057326
vt 0.757261 0.057326
vt 0.757261 0.001001
vt 0.817696 0.001001
vt 0.696826 0.057326
vt 0.636391 0.057326
vt 0.636391 0.001001
vt 0.696826 0.001001
vt 0.303174 0.057327
vt 0.242739 0.057327
vt 0.242739 0.001001
vt 0.303174 0.001001
vt 0.182305 0.057327
vt 0.121870 0.057327
vt 0.121870 0.001001
vt 0.182305 0.001001
vt 0.938564 0.942673
vt 0.938564 0.998999
vt 0.878129 0.998999
vt 0.878129 0.942673
vt 0.817695 0.942673
vt 0.817695 0.998999
vt 0.757260 0.998999
vt 0.757260 0.942673
vt 0.696826 0.942673
vt 0.696826 0.998999
vt 0.636391 0.998999
vt 0.636391 0.942673
vt 0.303174 0.942674
vt 0.303174 0.998999
vt 0.242739 0.998999
vt 0.242739 0.942674
vt 0.182305 0.942674
vt 0.182305 0.998999
vt 0.121870 0.998999
vt 0.121870 0.942674
vt 0.182305 0.001001
vt 0.182305 0.057327
vt 0.121870 0.057327
vt 0.121870 0.001001
vt 0.303174 0.001001
vt 0.303174 0.057327
vt 0.242739 0.057327
vt 0.242739 0.001001
vt 0.696826 0.001001
vt 0.696826 0.057326
vt 0.636391 0.057326
vt 0.636391 0.001001
vt 0.165666 0.001001
vt 0.001001 0.001001
vt 0.001001 0.332332
vt 0.165666 0.332332
vt 0.817696 0.001001
vt 0.817695 0.057326
vt 0.757261 0.057326
vt 0.757261 0.001001
vt 0.998999 0.667668
vt 0.834334 0.667668
vt 0.834334 0.832332
vt 0.998999 0.832332
vt 0.938565 0.001001
vt 0.938564 0.057326
vt 0.878130 0.057326
vt 0.878130 0.001001
vt 0.665666 0.834334
vt 0.501001 0.834334
vt 0.501001 0.998999
vt 0.665666 0.998999
vt 0.182305 0.998999
vt 0.121870 0.998999
vt 0.121870 0.942674
vt 0.182305 0.942674
vt 0.303174 0.998999
vt 0.242739 0.998999
vt 0.242739 0.942674
vt 0.303174 0.942674
vt 0.696826 0.998999
vt 0.636391 0.998999
vt 0.636391 0.942673
vt 0.696826 0.942673
vt 0.998999 0.501001
vt 0.834334 0.501001
vt 0.834334 0.665666
vt 0.998999 0.665666
vt 0.817695 0.998999
vt 0.757260 0.998999
vt 0.757260 0.942673
vt 0.817695 0.942673
vt 0.334334 0.165666
vt 0.665666 0.165666
vt 0.665666 0.001001
vt 0.334334 0.001001
vt 0.938564 0.998999
vt 0.878129 0.998999
vt 0.878129 0.942673
vt 0.938564 0.942674
vt 0.998999 0.167668
vt 0.834334 0.167668
vt 0.834334 0.332332
vt 0.998999 0.332332
vt 0.332332 0.667668
vt 0.167668 0.667668
vt 0.167668 0.832332
vt 0.332332 0.832332
vt 0.498999 0.332332
vt 0.498999 0.001001
vt 0.334334 0.001001
vt 0.334334 0.332332
vt 0.832332 0.334334
vt 0.667668 0.334334
vt 0.667668 0.498999
vt 0.832332 0.498999
vt 0.001001 0.332332
vt 0.332332 0.332332
vt 0.332332 0.167668
vt 0.001001 0.167668
vt 0.061436 0.998999
vt 0.001001 0.998999
vt 0.001001 0.942674
vt 0.061436 0.942674
vt 0.061436 0.001001
vt 0.061436 0.057327
vt 0.001001 0.057327
vt 0.001001 0.001001
vt 0.665666 0.167668
vt 0.501001 0.167668
vt 0.501001 0.498999
vt 0.665666 0.498999
vt 0.334334 0.665666
vt 0.665666 0.665666
vt 0.665666 0.501001
vt 0.334334 0.501001
vt 0.832332 0.501001
vt 0.667668 0.501001
vt 0.667668 0.665666
vt 0.832332 0.665666
vt 0.665666 0.667668
vt 0.501001 0.667668
vt 0.501001 0.832332
vt 0.665666 0.832332
vt 0.998999 0.942674
vt 0.998999 0.057326
vt 0.998999 0.998999
vt 0.998999 0.057326
vt 0.998999 0.942674
vt 0.998999 0.001001
vt 0.998999 0.998999
vt 0.998999 0.001001
vt 0.832332 0.667668
vt 0.667668 0.667668
vt 0.667668 0.832332
vt 0.832332 0.832332
vt 0.165666 0.834334
vt 0.001001 0.834334
vt 0.001001 0.998999
vt 0.165666 0.998999
vt 0.332332 0.834334
vt 0.167668 0.834334
vt 0.167668 0.998999
vt 0.332332 0.998999
vt 0.832332 0.001001
vt 0.667668 0.001001
vt 0.667668 0.332332
vt 0.832332 0.332332
vt 0.998999 0.001001
vt 0.834334 0.001001
vt 0.834334 0.165666
vt 0.998999 0.165666
vt 0.998999 0.167668
vt 0.834334 0.167668
vt 0.834334 0.332332
vt 0.998999 0.332332
vt 0.334334 0.832332
vt 0.665666 0.832332
vt 0.665666 0.667668
vt 0.334334 0.667668
vt 0.363609 0.998999
vt 0.363609 0.942673
vt 0.832332 0.667668
vt 0.667668 0.667668
vt 0.667668 0.832332
vt 0.832332 0.832332
vt 0.363609 0.001001
vt 0.363609 0.057327
vt 0.363609 0.942673
vt 0.363609 0.998999
vt 0.363609 0.057327
vt 0.363609 0.001001
vt 0.332332 0.834334
vt 0.167668 0.834334
vt 0.167668 0.998999
vt 0.332332 0.998999
vt 0.998999 0.334334
vt 0.834334 0.334334
vt 0.834334 0.498999
vt 0.998999 0.498999
vt 0.165666 0.334334
vt 0.001001 0.334334
vt 0.001001 0.665666
vt 0.165666 0.665666
vt 0.665666 0.834334
vt 0.501001 0.834334
vt 0.501001 0.998999
vt 0.665666 0.998999
vt 0.998999 0.501001
vt 0.834334 0.501001
vt 0.834334 0.665666
vt 0.998999 0.665666
vt 0.998999 0.667668
vt 0.834334 0.667668
vt 0.834334 0.832332
vt 0.998999 0.832332
vt 0.832332 0.834334
vt 0.667668 0.834334
vt 0.667668 0.998999
vt 0.832332 0.998999
vt 0.832332 0.665666
vt 0.832332 0.334334
vt 0.667668 0.334334
vt 0.667668 0.665666
vt 0.998999 0.001001
vt 0.834334 0.001001
vt 0.834334 0.165666
vt 0.998999 0.165666
vt 0.165666 0.834334
vt 0.001001 0.834334
vt 0.001001 0.998999
vt 0.165666 0.998999
vt 0.332332 0.832332
vt 0.332332 0.667668
vt 0.001001 0.667668
vt 0.001001 0.832332
vt 0.498999 0.498999
vt 0.498999 0.167668
vt 0.334334 0.167668
vt 0.334334 0.498999
vt 0.998999 0.334334
vt 0.834334 0.334334
vt 0.834334 0.498999
vt 0.998999 0.498999
vt 0.498999 0.834334
vt 0.334334 0.834334
vt 0.334334 0.998999
vt 0.498999 0.998999
vt 0.332332 0.665666
vt 0.332332 0.501001
vt 0.001001 0.501001
vt 0.001001 0.665666
vt 0.332332 0.332332
vt 0.332332 0.001001
vt 0.167668 0.001001
vt 0.167668 0.332332
vt 0.832332 0.834334
vt 0.667668 0.834334
vt 0.667668 0.998999
vt 0.832332 0.998999
vt 0.332332 0.498999
vt 0.332332 0.334334
vt 0.001001 0.334334
vt 0.001001 0.498999
vt 0.998999 0.834334
vt 0.834334 0.834334
vt 0.834334 0.998999
vt 0.998999 0.998999
vt 0.332332 0.165666
vt 0.332332 0.001001
vt 0.001001 0.001001
vt 0.001001 0.165666
vn 0.0000 0.0000 1.0000
vn 0.0000 0.0000 -1.0000
vn 0.0000 -1.0000 -0.0000
vn -1.0000 0.0000 0.0000
vn 0.0000 1.0000 0.0000
vn 1.0000 0.0000 0.0000
usemtl Material.005
s off
f 72/1/1 68/2/1 5/3/1 34/4/1
f 70/5/2 36/6/2 6/7/2 67/8/2
f 65/9/3 66/10/3 2/11/3 4/12/3
f 35/13/4 4/14/4 2/15/4 33/16/4
f 75/17/5 76/18/5 7/19/5 8/20/5
f 37/21/6 1/22/6 3/23/6 39/24/6
f 67/25/5 68/26/5 27/27/5 21/28/5
f 83/29/5 84/30/5 28/31/5 22/32/5
f 91/33/5 92/34/5 29/35/5 23/36/5
f 99/37/5 100/38/5 31/39/5 25/40/5
f 107/41/5 108/42/5 32/43/5 26/44/5
f 73/45/3 74/46/3 20/47/3 14/48/3
f 105/49/3 106/50/3 19/51/3 13/52/3
f 97/53/3 98/54/3 18/55/3 12/56/3
f 89/57/3 90/58/3 16/59/3 10/60/3
f 81/61/3 82/62/3 15/63/3 9/64/3
f 80/65/2 42/66/2 26/67/2 75/68/2
f 112/69/2 44/70/2 25/71/2 107/72/2
f 104/73/2 46/74/2 24/75/2 99/76/2
f 96/77/2 50/78/2 22/79/2 91/80/2
f 88/81/2 52/82/2 21/83/2 83/84/2
f 78/85/1 76/86/1 32/87/1 53/88/1
f 110/89/1 108/90/1 31/91/1 55/92/1
f 102/93/1 100/94/1 30/95/1 57/96/1
f 94/97/1 92/98/1 28/99/1 61/100/1
f 86/101/1 84/102/1 27/103/1 63/104/1
f 82/105/1 85/106/1 64/107/1 15/108/1
f 85/106/1 86/101/1 63/104/1 64/107/1
f 90/109/1 93/110/1 62/111/1 16/112/1
f 93/110/1 94/97/1 61/100/1 62/111/1
f 98/113/1 101/114/1 58/115/1 18/116/1
f 51/117/4 64/118/4 63/119/4 52/120/4
f 106/121/1 109/122/1 56/123/1 19/124/1
f 88/125/3 50/126/3 61/127/3 86/128/3
f 74/129/1 77/130/1 54/131/1 20/132/1
f 96/133/3 48/134/3 59/135/3 94/136/3
f 81/137/2 9/138/2 51/139/2 87/140/2
f 87/140/2 51/139/2 52/82/2 88/81/2
f 89/141/2 10/142/2 49/143/2 95/144/2
f 95/144/2 49/143/2 50/78/2 96/77/2
f 97/145/2 12/146/2 45/147/2 103/148/2
f 70/149/3 52/150/3 63/151/3 72/152/3
f 105/153/2 13/154/2 43/155/2 111/156/2
f 87/157/6 88/158/6 86/159/6 85/160/6
f 73/161/2 14/162/2 41/163/2 79/164/2
f 95/165/5 93/166/5 60/167/5 47/168/5
f 7/169/6 38/170/6 40/171/6 8/172/6
f 38/173/6 37/174/6 39/175/6 40/176/6
f 6/177/4 36/178/4 34/179/4 5/180/4
f 36/181/4 35/182/4 33/183/4 34/184/4
f 65/185/2 4/186/2 35/187/2 69/188/2
f 69/188/2 35/187/2 36/6/2 70/5/2
f 66/189/1 71/190/1 33/191/1 2/192/1
f 71/190/1 72/1/1 34/4/1 33/191/1
f 47/193/4 60/194/4 59/195/4 48/196/4
f 15/108/1 64/107/1 71/190/1 66/189/1
f 95/197/6 96/198/6 94/199/6 93/200/6
f 9/138/2 65/185/2 69/188/2 51/139/2
f 6/201/5 5/202/5 68/203/5 67/204/5
f 9/205/3 15/206/3 66/207/3 65/208/3
f 52/82/2 70/5/2 67/8/2 21/83/2
f 63/104/1 27/103/1 68/2/1 72/1/1
f 39/209/2 79/164/2 80/65/2 40/210/2
f 3/211/2 73/161/2 79/164/2 39/209/2
f 37/212/1 38/213/1 78/85/1 77/130/1
f 1/214/1 37/212/1 77/130/1 74/129/1
f 38/213/1 7/215/1 76/86/1 78/85/1
f 40/210/2 80/65/2 75/68/2 8/216/2
f 3/217/3 1/218/3 74/219/3 73/220/3
f 26/221/5 32/222/5 76/223/5 75/224/5
f 87/225/5 85/226/5 62/227/5 49/228/5
f 10/142/2 81/137/2 87/140/2 49/143/2
f 49/229/4 62/230/4 61/231/4 50/232/4
f 16/112/1 62/111/1 85/106/1 82/105/1
f 61/100/1 28/99/1 84/102/1 86/101/1
f 50/78/2 88/81/2 83/84/2 22/79/2
f 10/233/3 16/234/3 82/235/3 81/236/3
f 21/237/5 27/238/5 84/239/5 83/240/5
f 72/241/6 71/242/6 69/243/6 70/244/6
f 11/245/2 89/141/2 95/144/2 47/246/2
f 69/247/5 71/248/5 64/249/5 51/250/5
f 17/251/1 60/252/1 93/110/1 90/109/1
f 59/253/1 29/254/1 92/98/1 94/97/1
f 48/255/2 96/77/2 91/80/2 23/256/2
f 11/257/3 17/258/3 90/259/3 89/260/3
f 22/261/5 28/262/5 92/263/5 91/264/5
f 12/265/3 18/266/3 17/267/3 11/268/3
f 18/116/1 58/115/1 60/252/1 17/251/1
f 43/155/2 103/148/2 104/73/2 44/70/2
f 13/154/2 97/145/2 103/148/2 43/155/2
f 56/123/1 55/92/1 102/93/1 101/114/1
f 19/124/1 56/123/1 101/114/1 98/113/1
f 55/92/1 31/91/1 100/94/1 102/93/1
f 44/70/2 104/73/2 99/76/2 25/71/2
f 13/269/3 19/270/3 98/271/3 97/272/3
f 24/273/5 30/274/5 100/275/5 99/276/5
f 41/163/2 111/156/2 112/69/2 42/66/2
f 14/162/2 105/153/2 111/156/2 41/163/2
f 54/131/1 53/88/1 110/89/1 109/122/1
f 20/132/1 54/131/1 109/122/1 106/121/1
f 53/88/1 32/87/1 108/90/1 110/89/1
f 42/66/2 112/69/2 107/72/2 26/67/2
f 14/277/3 20/278/3 106/279/3 105/280/3
f 25/281/5 31/282/5 108/283/5 107/284/5
f 45/285/6 46/286/6 57/287/6 58/288/6
f 101/289/5 103/290/5 45/291/5 58/292/5
f 102/293/3 57/294/3 46/295/3 104/296/3
f 103/297/4 101/298/4 102/299/4 104/300/4
f 43/301/6 44/302/6 55/303/6 56/304/6
f 110/305/3 55/306/3 44/307/3 112/308/3
f 109/309/5 111/310/5 43/311/5 56/312/5
f 111/313/4 109/314/4 110/315/4 112/316/4
f 41/317/6 42/318/6 53/319/6 54/320/6
f 78/321/3 53/322/3 42/323/3 80/324/3
f 79/325/4 77/326/4 78/327/4 80/328/4
f 77/329/5 79/330/5 41/331/5 54/332/5
f 45/147/2 12/146/2 11/245/2 47/246/2
f 58/115/1 57/96/1 59/253/1 60/252/1
f 23/333/5 29/334/5 30/335/5 24/336/5
f 57/96/1 30/95/1 29/254/1 59/253/1
f 24/75/2 46/74/2 48/255/2 23/256/2
f 46/74/2 45/147/2 47/246/2 48/255/2
