# Blender v2.92.0 OBJ File: 'sala.blend'
# www.blender.org
mtllib ground.mtl
o Suelo_resize_Cube.006
v 2.624997 -0.218750 0.875000
v 0.874999 -0.218750 0.875000
v 2.624997 -0.218750 -0.875000
v 0.874998 -0.218750 -0.875000
v 0.874999 0.218750 0.875000
v 0.874998 0.218750 -0.875000
v 2.624997 0.218750 0.875000
v 2.624997 0.218750 -0.875000
vt 0.213768 0.184448
vt 0.047535 0.184448
vt 0.047535 0.880009
vt 0.213768 0.880009
vt 0.213768 0.880009
vt 0.213768 0.184448
vt 0.047535 0.184448
vt 0.047535 0.880009
vt 0.957460 0.159505
vt 0.257227 0.159505
vt 0.257227 0.885991
vt 0.957460 0.885991
vt 0.047535 0.880009
vt 0.213768 0.880009
vt 0.213768 0.184448
vt 0.047535 0.184448
vt 0.957460 0.159504
vt 0.257227 0.159505
vt 0.257227 0.885991
vt 0.957460 0.885991
vt 0.213768 0.184447
vt 0.047535 0.184447
vt 0.047535 0.880009
vt 0.213768 0.880009
vn 0.0000 0.0000 1.0000
vn 0.0000 0.0000 -1.0000
vn 0.0000 -1.0000 -0.0000
vn -1.0000 -0.0000 0.0000
vn -0.0000 1.0000 0.0000
vn 1.0000 0.0000 0.0000
usemtl None
s off
f 1/1/1 7/2/1 5/3/1 2/4/1
f 3/5/2 4/6/2 6/7/2 8/8/2
f 3/9/3 1/10/3 2/11/3 4/12/3
f 6/13/4 4/14/4 2/15/4 5/16/4
f 6/17/5 5/18/5 7/19/5 8/20/5
f 7/21/6 1/22/6 3/23/6 8/24/6
