# Blender v2.92.0 OBJ File: 'sala.blend'
# www.blender.org
mtllib pilar.mtl
o pilar_resize_Cube.004
v -0.291666 -2.625000 0.583333
v -0.291666 -2.625000 -0.291667
v 0.583333 -2.625000 -0.291667
v 0.583333 2.625000 -0.291667
v -0.291667 2.625000 0.583333
v -0.291667 2.625000 -0.291667
vt 0.000000 0.000000
vt 0.000000 0.000000
vt 0.000000 0.000000
vt 0.375000 0.500000
vt 0.625000 0.500000
vt 0.375000 0.750000
vn 0.0000 1.0000 0.0000
vn 0.0000 0.0000 -1.0000
vn -1.0000 -0.0000 0.0000
vn 0.7071 0.0000 0.7071
usemtl None
s off
f 6/1/1 5/2/1 4/3/1
f 2/4/2 6/1/2 4/3/2 3/5/2
f 2/4/3 1/6/3 5/2/3 6/1/3
f 4/3/4 5/2/4 1/6/4 3/5/4
