# Blender v2.92.0 OBJ File: 'sala.blend'
# www.blender.org
mtllib wall.mtl
o Pared_resize_Cube.016
v 2.624998 -1.750000 -0.218750
v -2.624999 -1.750000 -0.218750
v -2.624999 -1.750000 0.218750
v -2.624999 1.750000 0.218750
v 2.624999 1.750000 -0.218750
v -2.624999 1.750000 -0.218750
v 2.624999 -1.750000 0.218750
v 2.624999 1.750000 0.218750
vt 0.375000 0.250000
vt 0.375000 0.500000
vt 0.625000 0.500000
vt 0.625000 0.250000
vt 0.000000 0.000000
vt 0.000000 0.000000
vt 0.000000 0.000000
vt 0.000000 0.000000
vn -0.0000 0.0000 1.0000
vn -1.0000 0.0000 0.0000
vn 0.0000 1.0000 0.0000
vn 0.0000 0.0000 -1.0000
vn 1.0000 -0.0000 -0.0000
vn -0.0000 -1.0000 0.0000
usemtl None
s off
f 3/1/1 7/2/1 8/3/1 4/4/1
f 2/5/2 3/1/2 4/4/2 6/6/2
f 4/4/3 8/3/3 5/7/3 6/6/3
f 5/7/4 1/8/4 2/5/4 6/6/4
f 1/8/5 5/7/5 8/3/5 7/2/5
f 2/5/6 1/8/6 7/2/6 3/1/6
