# Blender v2.92.0 OBJ File: 'sala.blend'
# www.blender.org
mtllib wall.mtl
o Pared_resize_Cube.021
v 2.624998 -1.750000 -0.218750
v -2.624999 -1.750000 -0.218750
v -2.624999 -1.750000 0.218750
v -2.624999 1.750000 0.218750
v 2.624999 1.750000 -0.218750
v -2.624999 1.750000 -0.218750
v 2.624999 -1.750000 0.218750
v 2.624999 1.750000 0.218750
vt 0.998999 0.001001
vt 0.001001 0.001001
vt 0.001001 0.998999
vt 0.998999 0.998999
vt 0.998999 0.501001
vt 0.501001 0.501001
vt 0.501001 0.998999
vt 0.998999 0.998999
vt 0.498999 0.001001
vt 0.001001 0.001001
vt 0.001001 0.498999
vt 0.498999 0.498999
vt 0.998999 0.998999
vt 0.998999 0.001001
vt 0.001001 0.001001
vt 0.001001 0.998999
vt 0.498999 0.501001
vt 0.001001 0.501001
vt 0.498999 0.998999
vt 0.998999 0.001001
vt 0.501001 0.001001
vt 0.501001 0.498999
vt 0.998999 0.498999
vn -0.0000 0.0000 1.0000
vn -1.0000 0.0000 0.0000
vn 0.0000 1.0000 0.0000
vn 0.0000 0.0000 -1.0000
vn 1.0000 -0.0000 -0.0000
vn -0.0000 -1.0000 0.0000
usemtl Material.006
s off
f 3/1/1 7/2/1 8/3/1 4/4/1
f 2/5/2 3/6/2 4/7/2 6/8/2
f 4/9/3 8/10/3 5/11/3 6/12/3
f 5/13/4 1/14/4 2/15/4 6/16/4
f 1/17/5 5/18/5 8/3/5 7/19/5
f 2/20/6 1/21/6 7/22/6 3/23/6
