# Blender v2.81 (sub 16) OBJ File: 'paredConVentana.blend'
# www.blender.org
mtllib Marco.mtl
o Cube.003_Cube.007
v -1.678967 0.920530 -0.408546
v -1.578917 0.610390 -0.408546
v -1.632072 0.765460 -0.201227
v -1.578917 0.610390 0.016070
v 1.693892 0.920530 -0.408546
v 1.581598 0.610390 -0.408546
v 1.633303 0.765460 -0.201227
v 1.581598 0.610390 0.016070
v -1.632072 0.765460 0.016070
v 1.633303 0.765460 0.016070
v -1.678967 0.920530 -0.201227
v 1.693892 0.920530 -0.201227
v 1.633303 0.765460 -0.408546
v -1.632072 0.765460 -0.408546
v 1.684525 -0.917816 -0.408546
v 1.584475 -0.607676 -0.408546
v 1.637630 -0.762746 -0.201228
v 1.584475 -0.607676 0.006091
v -1.688334 -0.917816 -0.408546
v -1.576040 -0.607676 -0.408546
v -1.627745 -0.762746 -0.201228
v -1.576040 -0.607676 0.006091
v 1.637630 -0.762746 0.006091
v -1.627745 -0.762746 0.006091
v 1.684525 -0.917816 -0.201228
v -1.688334 -0.917816 -0.201228
v -1.627745 -0.762746 -0.408546
v 1.637630 -0.762746 -0.408546
v 1.693663 0.926293 -0.408778
v 1.693663 0.925032 0.012808
v 1.686133 -0.916482 -0.408779
v 1.686133 -0.915422 0.012807
v 1.576348 0.617350 -0.408778
v 1.576348 0.616089 0.012808
v 1.576348 -0.614292 -0.408962
v 1.576348 -0.613232 0.012624
v -1.687696 -0.919959 -0.408779
v -1.687696 -0.918698 0.012808
v -1.680166 0.922816 -0.408778
v -1.680166 0.921757 0.012807
v -1.570381 -0.611016 -0.408779
v -1.570381 -0.609755 0.012808
v -1.570381 0.620626 -0.408962
v -1.570381 0.619566 0.012624
vt 0.822529 0.001832
vt 0.888006 0.001832
vt 0.888006 0.123933
vt 0.822529 0.123933
vt 0.345037 0.730591
vt 0.410490 0.730591
vt 0.410489 0.790207
vt 0.345036 0.790207
vt 0.203266 0.790220
vt 0.203266 0.730591
vt 0.268731 0.730591
vt 0.268730 0.790220
vt 0.978003 0.551178
vt 0.960952 0.684242
vt 0.946402 0.817305
vt 0.057000 0.817306
vt 0.042041 0.684242
vt 0.028845 0.551178
vt 0.680546 0.035151
vt 0.680547 0.968674
vt 0.462335 0.968674
vt 0.462335 0.035151
vt 0.569046 0.016400
vt 0.569046 0.878034
vt 0.305023 0.878034
vt 0.305023 0.016400
vt 0.819331 0.545506
vt 0.819331 0.274369
vt 0.887946 0.274369
vt 0.887946 0.545506
vt 0.887980 0.249697
vt 0.822529 0.249698
vt 0.822529 0.127596
vt 0.887980 0.127596
vt 0.889958 0.274369
vt 0.955422 0.278783
vt 0.955422 0.541212
vt 0.889957 0.545506
vt 0.549570 0.586158
vt 0.615035 0.581127
vt 0.615035 0.861188
vt 0.549570 0.857294
vt 0.000982 0.731485
vt 0.066459 0.731485
vt 0.066459 0.850717
vt 0.000982 0.850717
vt 0.477906 0.790207
vt 0.412453 0.790207
vt 0.412453 0.730591
vt 0.477906 0.730591
vt 0.135838 0.790220
vt 0.135838 0.730591
vt 0.201302 0.730591
vt 0.201302 0.790220
vt 0.975167 0.194294
vt 0.958225 0.327343
vt 0.943782 0.460391
vt 0.054562 0.461089
vt 0.039502 0.328065
vt 0.026204 0.195038
vt 0.737706 0.967747
vt 0.737706 0.036078
vt 0.955484 0.036078
vt 0.955484 0.967747
vt 0.022008 0.879791
vt 0.022008 0.023117
vt 0.278342 0.023117
vt 0.278342 0.879791
vt 0.616999 0.852129
vt 0.616998 0.580993
vt 0.682463 0.580993
vt 0.682463 0.852129
vt 0.068423 0.731485
vt 0.133874 0.731485
vt 0.133874 0.850717
vt 0.068423 0.850717
vt 0.886712 0.553640
vt 0.952176 0.558053
vt 0.952176 0.820483
vt 0.886712 0.824776
vt 0.884748 0.828804
vt 0.819284 0.833835
vt 0.819284 0.553774
vt 0.884748 0.557667
vt 0.336044 0.028382
vt 0.034941 0.029016
vt 0.034941 0.955013
vt 0.336044 0.955547
vt 0.452342 0.032410
vt 0.452229 0.955832
vt 0.711849 0.955037
vt 0.711962 0.033355
vt 0.648654 0.029102
vt 0.426775 0.181098
vt 0.416720 0.800630
vt 0.648656 0.956044
vt 0.135179 0.718663
vt 0.135121 0.602512
vt 0.001998 0.602919
vt 0.002056 0.719070
vt 0.002056 0.010627
vt 0.002056 0.129424
vt 0.135179 0.129908
vt 0.135180 0.011111
vt 0.999841 0.280916
vt 0.989260 0.399695
vt 0.989718 0.872301
vt 0.999841 0.988468
vt 0.368250 0.957128
vt 0.683422 0.956488
vt 0.683421 0.021138
vt 0.368250 0.020600
vt 0.719868 0.032410
vt 0.719755 0.955831
vt 0.979375 0.955037
vt 0.979487 0.033355
vt 0.355248 0.033704
vt 0.156161 0.184190
vt 0.147137 0.797571
vt 0.355249 0.951442
vt 0.272357 0.718662
vt 0.272298 0.602512
vt 0.139175 0.602919
vt 0.139234 0.719070
vt 0.139233 0.010627
vt 0.139233 0.129424
vt 0.272356 0.129908
vt 0.272357 0.011111
vt 0.988942 0.280916
vt 0.978361 0.399696
vt 0.978819 0.872301
vt 0.988942 0.988468
vn 0.9487 -0.3163 0.0000
vn -0.9572 -0.2895 0.0000
vn 0.9314 -0.3639 0.0000
vn 0.0000 0.0000 -1.0000
vn 0.0000 1.0000 0.0000
vn 0.0000 -1.0000 0.0000
vn -0.9460 -0.3243 0.0000
vn 0.0000 0.0000 1.0000
vn -0.9487 0.3163 0.0000
vn 0.9572 0.2895 0.0000
vn -0.9314 0.3639 0.0000
vn 0.9460 0.3243 0.0000
vn 1.0000 -0.0041 -0.0000
vn -1.0000 -0.0000 0.0000
vn 0.0008 0.0001 -1.0000
vn -0.9399 -0.3415 0.0009
vn -0.9349 0.3550 0.0011
vn -0.0008 -0.0001 1.0000
vn -1.0000 0.0041 -0.0000
vn 1.0000 -0.0000 0.0000
vn -0.0008 -0.0001 -1.0000
vn 0.9399 0.3415 0.0009
vn 0.9349 -0.3550 0.0011
vn 0.0008 0.0001 1.0000
usemtl None
s off
f 10/1/1 8/2/1 6/3/1 13/4/1
f 3/5/2 11/6/2 1/7/2 14/8/2
f 12/9/3 7/10/3 13/11/3 5/12/3
f 5/13/4 13/14/4 6/15/4 2/16/4 14/17/4 1/18/4
f 5/19/5 1/20/5 11/21/5 12/22/5
f 8/23/6 4/24/6 2/25/6 6/26/6
f 7/27/5 3/28/5 9/29/5 10/30/5
f 4/31/7 9/32/7 14/33/7 2/34/7
f 9/35/8 4/36/8 8/37/8 10/38/8
f 7/39/8 12/40/8 11/41/8 3/42/8
f 24/43/9 22/44/9 20/45/9 27/46/9
f 17/47/10 25/48/10 15/49/10 28/50/10
f 26/51/11 21/52/11 27/53/11 19/54/11
f 19/55/4 27/56/4 20/57/4 16/58/4 28/59/4 15/60/4
f 19/61/6 15/62/6 25/63/6 26/64/6
f 22/65/5 18/66/5 16/67/5 20/68/5
f 21/69/6 17/70/6 23/71/6 24/72/6
f 18/73/12 23/74/12 28/75/12 16/76/12
f 23/77/8 18/78/8 22/79/8 24/80/8
f 21/81/8 26/82/8 25/83/8 17/84/8
f 29/85/13 30/86/13 32/87/13 31/88/13
f 33/89/14 35/90/14 36/91/14 34/92/14
f 31/93/15 35/94/15 33/95/15 29/96/15
f 32/97/16 36/98/16 35/99/16 31/100/16
f 29/101/17 33/102/17 34/103/17 30/104/17
f 30/105/18 34/106/18 36/107/18 32/108/18
f 37/109/19 38/110/19 40/111/19 39/112/19
f 41/113/20 43/114/20 44/115/20 42/116/20
f 39/117/21 43/118/21 41/119/21 37/120/21
f 40/121/22 44/122/22 43/123/22 39/124/22
f 37/125/23 41/126/23 42/127/23 38/128/23
f 38/129/24 42/130/24 44/131/24 40/132/24
