# 3ds Max Wavefront OBJ Exporter v0.99 - (c)2007 guruware
# File Created: 03.06.2021 23:52:49

mtllib Bastones.mtl

#
# object Baston_1
#

v  0.0000 0.2874 1.2944
v  -1.2944 0.2874 -0.0000
v  -0.0000 0.2874 -1.2944
v  1.2944 0.2874 -0.0000
v  -0.0000 48.8287 -0.8611
v  1.2944 48.8287 -0.0000
v  -1.2944 48.8287 -0.0000
v  0.0000 48.8287 0.8611
v  0.0000 54.4008 1.4357
v  2.1583 54.4008 -0.0000
v  -0.0000 54.4008 -1.4357
v  -2.1583 54.4008 -0.0000
v  6.4916 57.2318 -1.4357
v  6.0631 62.4681 -1.4357
v  5.7216 64.4008 -0.0000
v  7.9784 58.1394 -0.0000
v  -8.3332 57.8830 0.0000
v  -4.9048 64.2792 0.0000
v  -5.3752 62.5822 -1.4357
v  -6.7908 57.0487 -1.4357
v  -6.7908 57.0487 1.4357
v  -5.3752 62.5822 1.4357
v  6.0631 62.4681 1.4357
v  6.4916 57.2318 1.4357
v  -4.9757 57.2857 -1.4357
v  -4.6756 57.5896 -0.0000
v  -0.0000 51.5945 -1.4357
v  -4.1927 51.5379 -1.4357
v  -2.1583 49.8197 -0.0000
v  -5.9156 51.8418 -0.0000
v  0.0000 51.5945 1.4357
v  -4.1927 51.5379 1.4357
v  -4.9757 57.2857 1.4357
v  4.0368 57.6884 -0.0000
v  4.2091 57.1794 -1.4357
v  4.2091 57.1794 1.4357
v  4.5540 51.6511 1.4357
v  2.1583 49.8197 -0.0000
v  6.2161 52.1601 -0.0000
v  4.5540 51.6511 -1.4357
v  -2.7390 60.3380 0.4655
v  -2.7375 59.8503 -0.0222
v  -2.7390 60.3380 -0.5099
v  -2.7406 60.8258 -0.0222
v  -5.5056 60.3254 -0.5099
v  -5.5072 60.8132 -0.0222
v  -5.5041 59.8377 -0.0222
v  -5.5056 60.3254 0.4655
v  5.4452 60.3380 0.4655
v  5.4467 59.8503 -0.0222
v  5.4452 60.3380 -0.5099
v  5.4436 60.8258 -0.0222
v  2.4819 60.3254 -0.5099
v  2.4804 60.8132 -0.0222
v  2.4834 59.8377 -0.0222
v  2.4819 60.3254 0.4655
v  -0.0662 56.1714 0.4655
v  0.4215 56.1729 -0.0222
v  -0.0662 56.1714 -0.5099
v  -0.5540 56.1699 -0.0222
v  -0.0536 53.5575 -0.5099
v  -0.5413 53.5559 -0.0222
v  0.4341 53.5590 -0.0222
v  -0.0536 53.5575 0.4655
v  -0.0552 55.3195 0.0278
v  1.9079 60.3523 -3.4429
v  3.8992 60.3523 0.0062
v  -2.0747 60.3523 -3.4429
v  -4.0661 60.3523 0.0062
v  -2.0747 60.3523 3.4552
v  1.9079 60.3523 3.4552
v  1.0270 62.5463 1.9294
v  2.1374 62.5463 0.0062
v  1.0270 62.5463 -1.9171
v  -1.1938 62.5463 -1.9171
v  -2.3042 62.5463 0.0062
v  -1.1938 62.5463 1.9294
# 77 vertices

vn 0.0000 -0.5740 0.8188
vn -0.8165 -0.5774 -0.0000
vn -0.0000 -0.5740 -0.8188
vn 0.8165 -0.5774 -0.0000
vn -0.0000 -0.1017 -0.9948
vn 0.9011 -0.4336 0.0000
vn -0.9011 -0.4336 0.0000
vn -0.0000 -0.1017 0.9948
vn -0.0075 0.6768 0.7361
vn -0.6633 0.7483 0.0000
vn -0.0075 0.6768 -0.7361
vn 0.5990 0.8008 -0.0000
vn 0.4440 -0.0909 -0.8914
vn 0.3584 0.4812 -0.8000
vn -0.0859 0.9963 -0.0000
vn 0.9956 0.0938 -0.0000
vn -0.9921 0.1255 -0.0000
vn 0.2383 0.9712 0.0000
vn -0.1271 0.5437 -0.8296
vn -0.4589 -0.1014 -0.8827
vn -0.4589 -0.1014 0.8827
vn -0.1271 0.5437 0.8296
vn 0.3584 0.4812 0.8000
vn 0.4440 -0.0909 0.8914
vn 0.7218 0.4705 0.5076
vn 0.9476 0.3194 -0.0000
vn 0.0022 -0.2203 -0.9754
vn -0.1897 -0.7566 -0.6258
vn -0.6044 -0.7967 -0.0000
vn -0.8197 -0.5727 0.0000
vn 0.0022 -0.2203 0.9754
vn -0.1897 -0.7566 0.6258
vn 0.7218 0.4705 -0.5076
vn -0.9364 0.3508 -0.0000
vn -0.3819 0.3206 -0.8668
vn -0.3819 0.3206 0.8668
vn 0.2359 -0.7758 0.5852
vn 0.6191 -0.7853 -0.0000
vn 0.8619 -0.5070 0.0000
vn 0.2359 -0.7758 -0.5852
vn 0.5773 0.0023 0.8166
vn 0.5804 -0.8143 -0.0000
vn 0.5773 0.0024 -0.8166
vn 0.5743 0.8186 -0.0000
vn -0.5773 -0.0024 -0.8166
vn -0.5805 0.8142 -0.0000
vn -0.5743 -0.8187 0.0000
vn -0.5773 -0.0023 0.8166
vn 0.5773 0.0022 0.8166
vn 0.5803 -0.8144 -0.0000
vn 0.5773 0.0022 -0.8166
vn 0.5744 0.8185 -0.0000
vn -0.5773 -0.0022 -0.8166
vn -0.5804 0.8143 -0.0000
vn -0.5743 -0.8186 0.0000
vn -0.5773 -0.0022 0.8165
vn -0.0024 0.5774 0.8164
vn 0.8143 0.5805 0.0000
vn -0.0024 0.5774 -0.8164
vn -0.8188 0.5741 0.0000
vn 0.0024 -0.5773 -0.8165
vn -0.8142 -0.5806 -0.0000
vn 0.8188 -0.5741 0.0000
vn 0.0024 -0.5773 0.8165
vn 0.0037 -1.0000 0.0028
vn 0.4994 0.0028 -0.8664
vn 1.0000 0.0045 -0.0004
vn -0.5002 0.0013 -0.8659
vn -1.0000 0.0016 -0.0004
vn -0.5006 0.0033 0.8657
vn 0.4998 0.0047 0.8661
vn 0.2671 0.8454 0.4626
vn 0.5342 0.8454 -0.0000
vn 0.2671 0.8454 -0.4626
vn -0.2671 0.8454 -0.4626
vn -0.5342 0.8454 -0.0000
vn -0.2671 0.8454 0.4626
# 77 vertex normals

vt 0.7996 0.3121 0.0000
vt 0.7537 0.3759 0.0000
vt 0.7996 0.4397 0.0000
vt 0.8456 0.3759 0.0000
vt 0.5656 0.0105 0.0000
vt 0.5450 0.0105 0.0000
vt 0.5450 0.7063 0.0000
vt 0.5656 0.7063 0.0000
vt 0.5243 0.0105 0.0000
vt 0.5243 0.7063 0.0000
vt 0.2303 0.0213 0.0000
vt 0.2517 0.0213 0.0000
vt 0.2517 0.7101 0.0000
vt 0.2303 0.7101 0.0000
vt 0.2731 0.0213 0.0000
vt 0.2731 0.7101 0.0000
vt 0.8421 0.7268 0.0000
vt 0.9113 0.7773 0.0000
vt 0.8421 0.8279 0.0000
vt 0.7728 0.7773 0.0000
vt 0.6484 0.8267 0.0000
vt 0.6416 0.9017 0.0000
vt 0.6361 0.9295 0.0000
vt 0.6721 0.8397 0.0000
vt 0.4122 0.8360 0.0000
vt 0.4668 0.9277 0.0000
vt 0.4593 0.9034 0.0000
vt 0.4368 0.8241 0.0000
vt 0.1393 0.8268 0.0000
vt 0.1627 0.9053 0.0000
vt 0.1705 0.9294 0.0000
vt 0.1137 0.8386 0.0000
vt 0.3838 0.8423 0.0000
vt 0.3464 0.9311 0.0000
vt 0.3521 0.9037 0.0000
vt 0.3592 0.8294 0.0000
vt 0.6823 0.8279 0.0000
vt 0.6920 0.7773 0.0000
vt 0.5450 0.7861 0.0000
vt 0.5450 0.7459 0.0000
vt 0.4782 0.7451 0.0000
vt 0.4657 0.8275 0.0000
vt 0.5106 0.7205 0.0000
vt 0.4507 0.7494 0.0000
vt 0.2160 0.7242 0.0000
vt 0.2517 0.7494 0.0000
vt 0.1823 0.7486 0.0000
vt 0.1538 0.7529 0.0000
vt 0.2517 0.7892 0.0000
vt 0.1693 0.8301 0.0000
vt 0.6823 0.7268 0.0000
vt 0.9716 0.7773 0.0000
vt 0.9772 0.8279 0.0000
vt 0.9772 0.7268 0.0000
vt 0.3271 0.7502 0.0000
vt 0.3214 0.8286 0.0000
vt 0.2874 0.7242 0.0000
vt 0.3546 0.7574 0.0000
vt 0.5793 0.7205 0.0000
vt 0.6175 0.7467 0.0000
vt 0.6440 0.7540 0.0000
vt 0.6120 0.8259 0.0000
vt 0.4705 0.8318 0.0000
vt 0.1743 0.8345 0.0000
vt 0.6093 0.8332 0.0000
vt 0.3185 0.8359 0.0000
vt 0.7024 0.3530 0.0000
vt 0.7025 0.3770 0.0000
vt 0.7024 0.4011 0.0000
vt 0.7024 0.3770 0.0000
vt 0.5013 0.8782 0.0000
vt 0.5013 0.8712 0.0000
vt 0.4572 0.8710 0.0000
vt 0.4572 0.8780 0.0000
vt 0.5013 0.8642 0.0000
vt 0.4573 0.8640 0.0000
vt 0.2064 0.8665 0.0000
vt 0.2063 0.8735 0.0000
vt 0.1605 0.8733 0.0000
vt 0.1606 0.8664 0.0000
vt 0.2063 0.8804 0.0000
vt 0.1605 0.8802 0.0000
vt 0.6043 0.3530 0.0000
vt 0.6042 0.3770 0.0000
vt 0.6043 0.4011 0.0000
vt 0.6043 0.3770 0.0000
vt 0.9928 0.3530 0.0000
vt 0.9929 0.3770 0.0000
vt 0.9928 0.4011 0.0000
vt 0.9928 0.3770 0.0000
vt 0.6317 0.8782 0.0000
vt 0.6317 0.8712 0.0000
vt 0.5845 0.8710 0.0000
vt 0.5845 0.8780 0.0000
vt 0.6317 0.8642 0.0000
vt 0.5845 0.8640 0.0000
vt 0.3419 0.8665 0.0000
vt 0.3418 0.8735 0.0000
vt 0.2928 0.8733 0.0000
vt 0.2928 0.8664 0.0000
vt 0.3418 0.8804 0.0000
vt 0.2927 0.8802 0.0000
vt 0.8877 0.3530 0.0000
vt 0.8876 0.3770 0.0000
vt 0.8877 0.4011 0.0000
vt 0.8877 0.3770 0.0000
vt 0.7973 0.3530 0.0000
vt 0.8146 0.3770 0.0000
vt 0.7973 0.4011 0.0000
vt 0.7800 0.3770 0.0000
vt 0.5361 0.8115 0.0000
vt 0.5439 0.8115 0.0000
vt 0.5441 0.7740 0.0000
vt 0.5363 0.7740 0.0000
vt 0.5517 0.8115 0.0000
vt 0.5519 0.7741 0.0000
vt 0.2587 0.8143 0.0000
vt 0.2506 0.8143 0.0000
vt 0.2508 0.7772 0.0000
vt 0.2589 0.7773 0.0000
vt 0.2425 0.8143 0.0000
vt 0.2427 0.7772 0.0000
vt 0.7977 0.3530 0.0000
vt 0.7804 0.3770 0.0000
vt 0.7977 0.4011 0.0000
vt 0.8150 0.3770 0.0000
vt 0.5441 0.7993 0.0000
vt 0.5754 0.8714 0.0000
vt 0.6071 0.8714 0.0000
vt 0.5119 0.8714 0.0000
vt 0.4802 0.8714 0.0000
vt 0.2508 0.8022 0.0000
vt 0.2173 0.8737 0.0000
vt 0.1844 0.8737 0.0000
vt 0.2833 0.8737 0.0000
vt 0.3162 0.8737 0.0000
vt 0.8361 0.2808 0.0000
vt 0.8755 0.3756 0.0000
vt 0.8361 0.4704 0.0000
vt 0.7573 0.4704 0.0000
vt 0.7179 0.3756 0.0000
vt 0.7573 0.2808 0.0000
vt 0.5613 0.9029 0.0000
vt 0.5790 0.9029 0.0000
vt 0.5259 0.9029 0.0000
vt 0.5083 0.9029 0.0000
vt 0.2319 0.9048 0.0000
vt 0.2135 0.9048 0.0000
vt 0.2687 0.9048 0.0000
vt 0.2871 0.9048 0.0000
# 150 texture coords

o Baston_1
g Baston_1
usemtl 02___Default
s 1
f 1/1/1 2/2/2 3/3/3 4/4/4 
f 4/5/4 3/6/3 5/7/5 6/8/6 
f 3/6/3 2/9/2 7/10/7 5/7/5 
f 2/11/2 1/12/1 8/13/8 7/14/7 
f 1/12/1 4/15/4 6/16/6 8/13/8 
f 9/17/9 10/18/10 11/19/11 12/20/12 
f 13/21/13 14/22/14 15/23/15 16/24/16 
f 17/25/17 18/26/18 19/27/19 20/28/20 
f 21/29/21 22/30/22 18/31/18 17/32/17 
f 16/33/16 15/34/15 23/35/23 24/36/24 
f 12/20/12 11/19/11 25/37/25 26/38/26 
f 11/39/11 27/40/27 28/41/28 25/42/25 
f 27/40/27 29/43/29 30/44/30 28/41/28 
f 29/45/29 31/46/31 32/47/32 30/48/30 
f 31/46/31 9/49/9 33/50/33 32/47/32 
f 9/17/9 12/20/12 26/38/26 33/51/33 
f 11/19/11 10/18/10 34/52/34 35/53/35 
f 10/18/10 9/17/9 36/54/36 34/52/34 
f 9/49/9 31/46/31 37/55/37 36/56/36 
f 31/46/31 38/57/38 39/58/39 37/55/37 
f 38/59/38 27/40/27 40/60/40 39/61/39 
f 27/40/27 11/39/11 35/62/35 40/60/40 
f 25/42/25 19/27/19 18/26/18 26/63/26 
f 28/41/28 20/28/20 19/27/19 25/42/25 
f 30/44/30 17/25/17 20/28/20 28/41/28 
f 32/47/32 21/29/21 17/32/17 30/48/30 
f 33/50/33 22/30/22 21/29/21 32/47/32 
f 26/64/26 18/31/18 22/30/22 33/50/33 
f 34/65/34 15/23/15 14/22/14 35/62/35 
f 36/56/36 23/35/23 15/34/15 34/66/34 
f 37/55/37 24/36/24 23/35/23 36/56/36 
f 39/58/39 16/33/16 24/36/24 37/55/37 
f 40/60/40 13/21/13 16/24/16 39/61/39 
f 35/62/35 14/22/14 13/21/13 40/60/40 
f 5/7/5 27/40/27 38/59/38 6/8/6 
f 7/10/7 29/43/29 27/40/27 5/7/5 
f 8/13/8 31/46/31 29/45/29 7/14/7 
f 6/16/6 38/57/38 31/46/31 8/13/8 
f 41/67/41 42/68/42 43/69/43 44/70/44 
f 44/71/44 43/72/43 45/73/45 46/74/46 
f 43/72/43 42/75/42 47/76/47 45/73/45 
f 42/77/42 41/78/41 48/79/48 47/80/47 
f 41/78/41 44/81/44 46/82/46 48/79/48 
f 48/83/48 46/84/46 45/85/45 47/86/47 
f 49/87/49 50/88/50 51/89/51 52/90/52 
f 52/91/52 51/92/51 53/93/53 54/94/54 
f 51/92/51 50/95/50 55/96/55 53/93/53 
f 50/97/50 49/98/49 56/99/56 55/100/55 
f 49/98/49 52/101/52 54/102/54 56/99/56 
f 56/103/56 54/104/54 53/105/53 55/106/55 
f 57/107/57 58/108/58 59/109/59 60/110/60 
f 60/111/60 59/112/59 61/113/61 62/114/62 
f 59/112/59 58/115/58 63/116/63 61/113/61 
f 58/117/58 57/118/57 64/119/64 63/120/63 
f 57/118/57 60/121/60 62/122/62 64/119/64 
f 64/123/64 62/124/62 61/125/61 63/126/63 
f 65/127/65 66/128/66 67/129/67 
f 65/127/65 68/130/68 66/128/66 
f 65/127/65 69/131/69 68/130/68 
f 65/132/65 70/133/70 69/134/69 
f 65/132/65 71/135/71 70/133/70 
f 65/132/65 67/136/67 71/135/71 
f 72/137/72 73/138/73 74/139/74 75/140/75 76/141/76 77/142/77 
f 66/128/66 74/143/74 73/144/73 67/129/67 
f 68/130/68 75/145/75 74/143/74 66/128/66 
f 69/131/69 76/146/76 75/145/75 68/130/68 
f 70/133/70 77/147/77 76/148/76 69/134/69 
f 71/135/71 72/149/72 77/147/77 70/133/70 
f 67/136/67 73/150/73 72/149/72 71/135/71 
# 63 polygons - 6 triangles

#
# object Baston_2
#

v  0.0000 0.0000 1.4074
v  -1.4074 0.0000 0.0000
v  -0.0000 0.0000 -1.4074
v  1.4074 0.0000 -0.0000
v  -0.0000 33.7108 -1.4074
v  1.4074 33.7108 -0.0000
v  -1.4074 33.7108 -0.0000
v  0.0000 33.7108 1.4074
v  0.0000 56.9954 2.2789
v  2.2789 56.9954 -0.0000
v  -0.0000 56.9954 -2.2789
v  -2.2789 56.9954 -0.0000
v  -0.0000 43.9991 -1.4074
v  -0.0000 46.9786 -1.4874
v  1.9875 46.9786 -0.0000
v  1.4074 43.9991 -0.0000
v  -1.4074 43.9991 -0.0000
v  -1.9875 46.9786 -0.0000
v  0.0000 43.9991 1.4074
v  0.0000 46.9786 1.4874
v  -0.0000 39.8594 -1.4074
v  1.4074 39.8594 -0.0000
v  -1.4074 39.8594 -0.0000
v  0.0000 39.8594 1.4074
v  3.7207 37.3295 1.0147
v  3.7207 41.7625 1.0147
v  4.9767 37.3295 -0.0000
v  3.7207 37.3295 -1.0147
v  3.7207 41.7625 -1.0147
v  3.6402 41.7580 -0.0000
v  -3.7660 41.8265 1.0147
v  -3.7660 37.3935 1.0147
v  -3.7789 41.9074 -0.0000
v  -3.7660 41.8265 -1.0147
v  -3.7660 37.3935 -1.0147
v  -4.9851 37.3935 -0.0000
v  -0.0000 49.9027 -2.2789
v  -3.5092 49.4245 -0.0000
v  -5.9671 49.9027 -0.0000
v  -3.6882 52.3182 -0.9263
v  0.0000 49.9027 2.2789
v  -3.6882 52.3182 0.9263
v  0.0000 56.1443 2.2789
v  -3.6882 56.1443 0.9263
v  -2.2789 56.1443 -0.0000
v  -3.6809 56.1443 -0.0000
v  -0.0000 56.1443 -2.2789
v  -3.6882 56.1443 -0.9263
v  3.5092 49.4245 -0.0000
v  3.9719 52.3182 -0.9263
v  6.2508 49.9027 -0.0000
v  3.9719 56.1443 -0.9263
v  2.2789 56.1443 -0.0000
v  4.0045 56.1611 -0.0000
v  3.9719 56.1443 0.9263
v  3.9719 52.3182 0.9263
v  -7.5750 45.5934 0.0000
v  7.2913 45.5934 -0.0000
v  6.6296 54.3522 -0.9263
v  8.6682 55.1629 -0.0000
v  4.4093 59.9354 -0.9263
v  4.4172 59.9836 -0.0000
v  4.4093 59.9354 0.9263
v  6.6296 54.3522 0.9263
v  -8.5840 55.1471 -0.0000
v  -6.5257 54.3650 -0.9263
v  -6.5257 54.3650 0.9263
v  -4.3838 60.0027 0.9263
v  -4.3761 59.9671 -0.0000
v  -4.3838 60.0027 -0.9263
v  -6.6902 63.2084 -0.0000
v  6.5526 63.1954 -0.0000
v  0.0212 54.4971 -0.0350
v  1.9843 59.5298 -3.5056
v  3.9757 59.5298 -0.0566
v  -1.9983 59.5298 -3.5056
v  -3.9896 59.5298 -0.0566
v  -1.9983 59.5298 3.3925
v  1.9843 59.5298 3.3925
v  1.1034 61.7239 1.8667
v  2.2138 61.7239 -0.0566
v  1.1034 61.7239 -1.9798
v  -1.1174 61.7239 -1.9798
v  -2.2278 61.7239 -0.0566
v  -1.1174 61.7239 1.8667
# 85 vertices

vn -0.0001 -0.5774 0.8165
vn -0.8165 -0.5774 0.0000
vn -0.0000 -0.5774 -0.8165
vn 0.8165 -0.5773 0.0001
vn -0.0002 -0.2095 -0.9778
vn 0.8891 -0.4577 -0.0000
vn -0.8917 -0.4527 0.0000
vn -0.0002 -0.2095 0.9778
vn -0.0001 0.5774 0.8165
vn 0.8165 0.5774 -0.0000
vn -0.0001 0.5774 -0.8165
vn -0.8165 0.5774 0.0000
vn -0.0000 -0.0135 -0.9999
vn -0.0000 -0.1520 -0.9884
vn 0.9156 -0.4021 -0.0000
vn 0.9949 -0.1004 -0.0000
vn -0.9949 -0.1004 -0.0001
vn -0.9156 -0.4021 0.0000
vn 0.0001 -0.0135 0.9999
vn -0.0000 -0.1520 0.9884
vn 0.0014 0.2193 -0.9757
vn -0.0383 0.9993 -0.0001
vn 0.0426 0.9991 -0.0000
vn 0.0014 0.2193 0.9757
vn 0.3992 -0.2233 0.8893
vn -0.2280 0.5514 0.8025
vn 0.8910 -0.4539 -0.0000
vn 0.3992 -0.2233 -0.8893
vn -0.2280 0.5514 -0.8025
vn -0.6855 0.7281 -0.0000
vn 0.2237 0.5593 0.7982
vn -0.4014 -0.2302 0.8865
vn 0.6763 0.7367 -0.0000
vn 0.2237 0.5593 -0.7982
vn -0.4014 -0.2302 -0.8865
vn -0.8838 -0.4678 -0.0000
vn -0.0058 -0.1913 -0.9815
vn -0.3710 -0.9286 0.0000
vn -0.6216 -0.7834 -0.0000
vn -0.2573 -0.0571 -0.9646
vn -0.0058 -0.1913 0.9815
vn -0.2573 -0.0571 0.9646
vn -0.0066 0.1694 0.9855
vn 0.1988 0.4332 0.8791
vn -0.4264 0.9045 0.0000
vn 0.6388 0.7694 0.0000
vn -0.0066 0.1695 -0.9855
vn 0.1988 0.4333 -0.8791
vn 0.3545 -0.9351 0.0000
vn 0.2474 -0.0614 -0.9670
vn 0.6261 -0.7798 -0.0000
vn -0.2009 0.4162 -0.8868
vn 0.4191 0.9079 -0.0000
vn -0.6835 0.7299 -0.0000
vn -0.2009 0.4162 0.8868
vn 0.2474 -0.0614 0.9670
vn -0.5665 0.8241 -0.0000
vn 0.5375 0.8432 0.0000
vn 0.3559 -0.3018 -0.8845
vn 0.9999 -0.0150 -0.0000
vn -0.6013 0.3173 -0.7334
vn -0.9377 0.3475 -0.0000
vn -0.6013 0.3173 0.7334
vn 0.3559 -0.3018 0.8845
vn -0.9991 -0.0418 0.0000
vn -0.3520 -0.3186 -0.8801
vn -0.3520 -0.3186 0.8801
vn 0.5869 0.3592 0.7256
vn 0.9232 0.3844 -0.0000
vn 0.5869 0.3592 -0.7256
vn -0.3046 0.9525 0.0000
vn 0.2738 0.9618 -0.0000
vn 0.0037 -1.0000 0.0028
vn 0.4994 0.0028 -0.8664
vn 1.0000 0.0045 -0.0004
vn -0.5002 0.0013 -0.8659
vn -1.0000 0.0016 -0.0004
vn -0.5006 0.0033 0.8657
vn 0.4998 0.0047 0.8661
vn 0.2671 0.8454 0.4626
vn 0.5342 0.8454 -0.0000
vn 0.2671 0.8454 -0.4626
vn -0.2671 0.8454 -0.4626
vn -0.5342 0.8454 -0.0000
vn -0.2671 0.8454 0.4626
# 85 vertex normals

vt 0.7883 0.1411 0.0000
vt 0.7100 0.2139 0.0000
vt 0.7883 0.2868 0.0000
vt 0.8666 0.2139 0.0000
vt 0.2419 0.0213 0.0000
vt 0.2204 0.0213 0.0000
vt 0.2204 0.5186 0.0000
vt 0.2419 0.5186 0.0000
vt 0.1988 0.0213 0.0000
vt 0.1988 0.5186 0.0000
vt 0.5158 0.0137 0.0000
vt 0.5377 0.0137 0.0000
vt 0.5377 0.5147 0.0000
vt 0.5158 0.5147 0.0000
vt 0.5596 0.0137 0.0000
vt 0.5596 0.5147 0.0000
vt 0.7883 0.0960 0.0000
vt 0.9151 0.2139 0.0000
vt 0.7883 0.3319 0.0000
vt 0.6615 0.2139 0.0000
vt 0.2204 0.6704 0.0000
vt 0.2204 0.7144 0.0000
vt 0.2508 0.7144 0.0000
vt 0.2419 0.6704 0.0000
vt 0.1988 0.6704 0.0000
vt 0.1899 0.7144 0.0000
vt 0.5377 0.6676 0.0000
vt 0.5377 0.7119 0.0000
vt 0.5068 0.7119 0.0000
vt 0.5158 0.6676 0.0000
vt 0.5596 0.6676 0.0000
vt 0.5686 0.7119 0.0000
vt 0.2204 0.6093 0.0000
vt 0.2419 0.6093 0.0000
vt 0.1988 0.6093 0.0000
vt 0.5377 0.6061 0.0000
vt 0.5158 0.6061 0.0000
vt 0.5596 0.6061 0.0000
vt 0.5955 0.5685 0.0000
vt 0.5955 0.6344 0.0000
vt 0.6151 0.5685 0.0000
vt 0.2774 0.5720 0.0000
vt 0.2966 0.5720 0.0000
vt 0.2774 0.6374 0.0000
vt 0.8372 0.8288 0.0000
vt 0.8612 0.7450 0.0000
vt 0.8994 0.7450 0.0000
vt 0.9008 0.8055 0.0000
vt 0.8372 0.6612 0.0000
vt 0.9008 0.6846 0.0000
vt 0.4792 0.6353 0.0000
vt 0.4792 0.5694 0.0000
vt 0.8131 0.7450 0.0000
vt 0.7726 0.7450 0.0000
vt 0.7728 0.6846 0.0000
vt 0.7728 0.8055 0.0000
vt 0.1627 0.5730 0.0000
vt 0.1627 0.6384 0.0000
vt 0.1440 0.5730 0.0000
vt 0.4602 0.5694 0.0000
vt 0.2204 0.7575 0.0000
vt 0.1666 0.7505 0.0000
vt 0.1289 0.7575 0.0000
vt 0.1639 0.7931 0.0000
vt 0.4832 0.7482 0.0000
vt 0.5377 0.7553 0.0000
vt 0.4804 0.7912 0.0000
vt 0.4449 0.7553 0.0000
vt 0.5377 0.8481 0.0000
vt 0.4804 0.8481 0.0000
vt 0.8372 0.6094 0.0000
vt 0.7982 0.7450 0.0000
vt 0.7743 0.7450 0.0000
vt 0.7741 0.6899 0.0000
vt 0.8372 0.8807 0.0000
vt 0.7741 0.8002 0.0000
vt 0.2204 0.8496 0.0000
vt 0.1639 0.8496 0.0000
vt 0.2741 0.7505 0.0000
vt 0.2812 0.7931 0.0000
vt 0.3161 0.7575 0.0000
vt 0.2812 0.8496 0.0000
vt 0.8761 0.7450 0.0000
vt 0.9056 0.7450 0.0000
vt 0.9051 0.8002 0.0000
vt 0.9051 0.6899 0.0000
vt 0.5994 0.7912 0.0000
vt 0.5994 0.8481 0.0000
vt 0.5923 0.7482 0.0000
vt 0.6349 0.7553 0.0000
vt 0.2553 0.8496 0.0000
vt 0.2204 0.8621 0.0000
vt 0.2553 0.8621 0.0000
vt 0.1854 0.8496 0.0000
vt 0.1854 0.8621 0.0000
vt 0.5023 0.8481 0.0000
vt 0.5377 0.8607 0.0000
vt 0.5023 0.8607 0.0000
vt 0.5731 0.8481 0.0000
vt 0.5731 0.8607 0.0000
vt 0.4200 0.6913 0.0000
vt 0.7077 0.7450 0.0000
vt 0.1043 0.6939 0.0000
vt 0.6510 0.6913 0.0000
vt 0.3321 0.6939 0.0000
vt 0.9618 0.7450 0.0000
vt 0.3219 0.8231 0.0000
vt 0.3531 0.8351 0.0000
vt 0.2879 0.9055 0.0000
vt 0.9127 0.7450 0.0000
vt 0.9126 0.8002 0.0000
vt 0.9126 0.6899 0.0000
vt 0.6408 0.8215 0.0000
vt 0.6062 0.9044 0.0000
vt 0.6724 0.8335 0.0000
vt 0.0889 0.8349 0.0000
vt 0.1204 0.8233 0.0000
vt 0.4363 0.8217 0.0000
vt 0.4043 0.8333 0.0000
vt 0.4696 0.9054 0.0000
vt 0.7624 0.7450 0.0000
vt 0.7622 0.6899 0.0000
vt 0.7622 0.8002 0.0000
vt 0.1532 0.9065 0.0000
vt 0.1179 0.9538 0.0000
vt 0.4337 0.9531 0.0000
vt 0.7228 0.7450 0.0000
vt 0.3207 0.9536 0.0000
vt 0.9492 0.7450 0.0000
vt 0.6396 0.9529 0.0000
vt 0.2207 0.8253 0.0000
vt 0.2508 0.8995 0.0000
vt 0.2813 0.8995 0.0000
vt 0.1897 0.8995 0.0000
vt 0.1592 0.8995 0.0000
vt 0.5380 0.8236 0.0000
vt 0.5066 0.8984 0.0000
vt 0.4757 0.8984 0.0000
vt 0.5686 0.8984 0.0000
vt 0.5995 0.8984 0.0000
vt 0.8497 0.1173 0.0000
vt 0.9115 0.2169 0.0000
vt 0.8497 0.3164 0.0000
vt 0.7261 0.3164 0.0000
vt 0.6643 0.2169 0.0000
vt 0.7261 0.1173 0.0000
vt 0.2373 0.9319 0.0000
vt 0.2543 0.9319 0.0000
vt 0.2032 0.9319 0.0000
vt 0.1862 0.9319 0.0000
vt 0.5203 0.9310 0.0000
vt 0.5031 0.9310 0.0000
vt 0.5549 0.9310 0.0000
vt 0.5721 0.9310 0.0000
# 154 texture coords

o Baston_2
g Baston_2
usemtl 01___Default
s 1
f 78/151/78 79/152/79 80/153/80 81/154/81 
f 81/155/81 80/156/80 82/157/82 83/158/83 
f 80/156/80 79/159/79 84/160/84 82/157/82 
f 79/161/79 78/162/78 85/163/85 84/164/84 
f 78/162/78 81/165/81 83/166/83 85/163/85 
f 86/167/86 87/168/87 88/169/88 89/170/89 
f 90/171/90 91/172/91 92/173/92 93/174/93 
f 94/175/94 95/176/95 91/172/91 90/171/90 
f 96/177/96 97/178/97 95/179/95 94/180/94 
f 93/181/93 92/182/92 97/178/97 96/177/96 
f 98/183/98 90/171/90 93/174/93 99/184/99 
f 100/185/100 94/175/94 90/171/90 98/183/98 
f 101/186/101 96/177/96 94/180/94 100/187/100 
f 99/188/99 93/181/93 96/177/96 101/186/101 
f 101/186/101 85/163/85 102/189/102 103/190/103 
f 85/163/85 83/166/83 104/191/104 102/189/102 
f 83/158/83 82/157/82 105/192/105 104/193/104 
f 82/157/82 98/183/98 106/194/106 105/192/105 
f 98/195/98 99/196/99 107/197/107 106/198/106 
f 99/196/99 101/199/101 103/200/103 107/197/107 
f 85/163/85 101/186/101 108/201/108 109/202/109 
f 101/199/101 100/203/100 110/204/110 108/205/108 
f 100/203/100 98/195/98 111/206/111 110/204/110 
f 98/183/98 82/157/82 112/207/112 111/208/111 
f 82/157/82 84/160/84 113/209/113 112/207/112 
f 84/164/84 85/163/85 109/202/109 113/210/113 
f 114/211/114 115/212/115 116/213/116 117/214/117 
f 115/215/115 118/216/118 119/217/119 116/218/116 
f 118/216/118 120/219/120 121/220/121 119/217/119 
f 120/221/120 122/222/122 123/223/123 121/224/121 
f 122/222/122 124/225/124 125/226/125 123/223/123 
f 124/227/124 114/211/114 117/214/117 125/228/125 
f 126/229/126 114/211/114 127/230/127 128/231/128 
f 114/211/114 124/227/124 129/232/129 127/230/127 
f 124/225/124 130/233/130 131/234/131 129/235/129 
f 130/233/130 120/221/120 132/236/132 131/234/131 
f 120/219/120 118/216/118 133/237/133 132/238/132 
f 118/216/118 126/239/126 128/240/128 133/237/133 
f 130/241/130 124/227/124 88/242/88 87/243/87 
f 124/227/124 122/244/122 89/245/89 88/242/88 
f 122/246/122 120/219/120 86/247/86 89/248/89 
f 120/219/120 130/249/130 87/250/87 86/247/86 
f 108/201/108 134/251/134 109/202/109 
f 110/204/110 134/252/134 108/205/108 
f 111/206/111 134/252/134 110/204/110 
f 112/207/112 134/253/134 111/208/111 
f 113/209/113 134/253/134 112/207/112 
f 109/202/109 134/251/134 113/210/113 
f 102/189/102 135/254/135 103/190/103 
f 104/191/104 135/254/135 102/189/102 
f 105/192/105 135/255/135 104/193/104 
f 106/194/106 135/255/135 105/192/105 
f 107/197/107 135/256/135 106/198/106 
f 103/200/103 135/256/135 107/197/107 
f 128/231/128 127/230/127 136/257/136 137/258/137 
f 127/230/127 129/232/129 138/259/138 136/257/136 
f 129/235/129 131/234/131 139/260/139 138/261/138 
f 131/234/131 132/236/132 140/262/140 139/260/139 
f 132/238/132 133/237/133 141/263/141 140/264/140 
f 133/237/133 128/240/128 137/265/137 141/263/141 
f 117/214/117 116/213/116 142/266/142 143/267/143 
f 116/218/116 119/217/119 144/268/144 142/269/142 
f 119/217/119 121/220/121 145/270/145 144/268/144 
f 121/224/121 123/223/123 146/271/146 145/272/145 
f 123/223/123 125/226/125 147/273/147 146/271/146 
f 125/228/125 117/214/117 143/267/143 147/274/147 
f 91/172/91 114/211/114 126/229/126 92/173/92 
f 95/176/95 115/212/115 114/211/114 91/172/91 
f 97/178/97 118/216/118 115/215/115 95/179/95 
f 92/182/92 126/239/126 118/216/118 97/178/97 
f 142/266/142 148/275/148 143/267/143 
f 144/268/144 148/276/148 142/269/142 
f 145/270/145 148/276/148 144/268/144 
f 146/271/146 148/277/148 145/272/145 
f 147/273/147 148/277/148 146/271/146 
f 143/267/143 148/275/148 147/274/147 
f 136/257/136 149/278/149 137/258/137 
f 138/259/138 149/278/149 136/257/136 
f 139/260/139 149/279/149 138/261/138 
f 140/262/140 149/279/149 139/260/139 
f 141/263/141 149/280/149 140/264/140 
f 137/265/137 149/280/149 141/263/141 
f 150/281/150 151/282/151 152/283/152 
f 150/281/150 153/284/153 151/282/151 
f 150/281/150 154/285/154 153/284/153 
f 150/286/150 155/287/155 154/288/154 
f 150/286/150 156/289/156 155/287/155 
f 150/286/150 152/290/152 156/289/156 
f 157/291/157 158/292/158 159/293/159 160/294/160 161/295/161 162/296/162 
f 151/282/151 159/297/159 158/298/158 152/283/152 
f 153/284/153 160/299/160 159/297/159 151/282/151 
f 154/285/154 161/300/161 160/299/160 153/284/153 
f 155/287/155 162/301/162 161/302/161 154/288/154 
f 156/289/156 157/303/157 162/301/162 155/287/155 
f 152/290/152 158/304/158 157/303/157 156/289/156 
# 65 polygons - 30 triangles

