# 3ds Max Wavefront OBJ Exporter v0.99 - (c)2007 guruware
# File Created: 03.06.2021 23:52:18

mtllib Varitas.mtl

#
# object Varita_1
#

v  -0.0000 12.9216 2.3547
v  -2.3547 12.9216 0.0000
v  -0.0000 12.9216 -2.3547
v  2.3547 12.9216 0.0000
v  -0.0000 15.3436 -2.3547
v  2.3547 15.3437 0.0000
v  -2.3547 15.3436 0.0000
v  -0.0000 15.3436 2.3547
v  -0.0000 30.0468 -2.4876
v  -0.0000 31.6740 -2.4876
v  2.4876 31.6740 0.0000
v  2.4876 30.0468 0.0000
v  -2.4876 30.0468 0.0000
v  -2.4876 31.6740 0.0000
v  0.0000 30.0468 2.4876
v  0.0000 31.6740 2.4876
v  -0.0000 15.4236 -1.5272
v  1.5272 15.4236 0.0000
v  -1.5272 15.4236 0.0000
v  -0.0000 15.4236 1.5272
v  -0.0000 30.0751 -1.5272
v  1.5272 30.0751 0.0000
v  -1.5272 30.0751 0.0000
v  -0.0000 30.0751 1.5272
v  -0.0000 32.0139 -2.4876
v  2.4876 32.0139 0.0000
v  -2.4876 32.0139 0.0000
v  0.0000 32.0139 2.4876
v  -0.0000 35.4587 -4.0605
v  4.0605 35.4587 0.0000
v  -4.0605 35.4587 0.0000
v  -0.0000 35.4587 4.0605
v  -0.0000 38.9305 -2.4876
v  -0.0000 72.9063 -0.1744
v  2.4876 38.9305 0.0000
v  -2.4876 38.9305 0.0000
v  0.0000 38.9305 2.4876
# 37 vertices

vn 0.0001 -0.5774 0.8165
vn -0.8165 -0.5774 -0.0001
vn -0.0000 -0.5774 -0.8165
vn 0.8165 -0.5774 -0.0000
vn -0.0000 0.5507 -0.8347
vn 0.8347 0.5507 -0.0000
vn -0.8347 0.5508 -0.0001
vn 0.0001 0.5508 0.8347
vn -0.0001 -0.5854 -0.8108
vn -0.0000 0.0000 -1.0000
vn 1.0000 -0.0000 -0.0000
vn 0.8108 -0.5853 -0.0000
vn -0.8108 -0.5853 0.0000
vn -1.0000 -0.0000 0.0000
vn -0.0001 -0.5854 0.8108
vn -0.0000 0.0000 1.0000
vn 0.0000 0.8675 -0.4974
vn 0.4974 0.8675 -0.0000
vn -0.4974 0.8675 -0.0000
vn 0.0000 0.8675 0.4974
vn -0.0000 -0.9145 -0.4046
vn 0.4046 -0.9145 -0.0000
vn -0.4045 -0.9145 0.0000
vn 0.0000 -0.9145 0.4046
vn -0.0000 -0.2356 -0.9718
vn 0.9718 -0.2356 -0.0000
vn -0.9718 -0.2356 0.0000
vn -0.0000 -0.2356 0.9718
vn -0.0000 -0.0013 -1.0000
vn 1.0000 -0.0013 -0.0000
vn -1.0000 -0.0013 0.0000
vn 0.0000 -0.0013 1.0000
vn -0.0000 0.2657 -0.9641
vn 0.0000 1.0000 -0.0051
vn 0.9634 0.2680 0.0010
vn -0.9634 0.2680 0.0010
vn -0.0000 0.2703 0.9628
# 37 vertex normals

vt 0.7703 0.2375 0.0000
vt 0.6709 0.3521 0.0000
vt 0.7703 0.4668 0.0000
vt 0.8696 0.3521 0.0000
vt 0.3205 0.0323 0.0000
vt 0.2690 0.0323 0.0000
vt 0.2690 0.0697 0.0000
vt 0.3205 0.0697 0.0000
vt 0.2175 0.0323 0.0000
vt 0.2175 0.0697 0.0000
vt 0.3200 0.0312 0.0000
vt 0.2685 0.0312 0.0000
vt 0.2685 0.0687 0.0000
vt 0.3200 0.0687 0.0000
vt 0.2169 0.0312 0.0000
vt 0.2169 0.0687 0.0000
vt 0.2690 0.2967 0.0000
vt 0.2690 0.3219 0.0000
vt 0.3234 0.3219 0.0000
vt 0.3234 0.2967 0.0000
vt 0.2146 0.2967 0.0000
vt 0.2146 0.3219 0.0000
vt 0.2685 0.2959 0.0000
vt 0.2685 0.3210 0.0000
vt 0.3229 0.3210 0.0000
vt 0.3229 0.2959 0.0000
vt 0.2140 0.2959 0.0000
vt 0.2140 0.3210 0.0000
vt 0.7703 0.4265 0.0000
vt 0.8347 0.3521 0.0000
vt 0.7059 0.3521 0.0000
vt 0.7703 0.2778 0.0000
vt 0.2690 0.0710 0.0000
vt 0.2690 0.2972 0.0000
vt 0.3024 0.2972 0.0000
vt 0.3024 0.0710 0.0000
vt 0.2356 0.0710 0.0000
vt 0.2356 0.2972 0.0000
vt 0.2685 0.0699 0.0000
vt 0.2685 0.2963 0.0000
vt 0.3019 0.2963 0.0000
vt 0.3019 0.0699 0.0000
vt 0.2350 0.0699 0.0000
vt 0.2350 0.2963 0.0000
vt 0.7703 0.4733 0.0000
vt 0.8752 0.3521 0.0000
vt 0.6653 0.3521 0.0000
vt 0.7703 0.2310 0.0000
vt 0.2690 0.3271 0.0000
vt 0.2690 0.3803 0.0000
vt 0.3578 0.3803 0.0000
vt 0.3234 0.3271 0.0000
vt 0.2146 0.3271 0.0000
vt 0.1802 0.3803 0.0000
vt 0.2685 0.3263 0.0000
vt 0.2685 0.3795 0.0000
vt 0.3574 0.3795 0.0000
vt 0.3229 0.3263 0.0000
vt 0.2140 0.3263 0.0000
vt 0.1795 0.3795 0.0000
vt 0.2690 0.4339 0.0000
vt 0.2690 0.9584 0.0000
vt 0.3234 0.4339 0.0000
vt 0.2146 0.4339 0.0000
vt 0.2685 0.4331 0.0000
vt 0.2685 0.9581 0.0000
vt 0.3229 0.4331 0.0000
vt 0.2140 0.4331 0.0000
# 68 texture coords

o Varita_1
g Varita_1
usemtl 01___Default
s 1
f 1/1/1 2/2/2 3/3/3 4/4/4 
s 8
f 4/5/4 3/6/3 5/7/5 6/8/6 
f 3/6/3 2/9/2 7/10/7 5/7/5 
f 2/11/2 1/12/1 8/13/8 7/14/7 
f 1/12/1 4/15/4 6/16/6 8/13/8 
f 9/17/9 10/18/10 11/19/11 12/20/12 
f 13/21/13 14/22/14 10/18/10 9/17/9 
f 15/23/15 16/24/16 14/25/14 13/26/13 
f 12/27/12 11/28/11 16/24/16 15/23/15 
f 5/3/5 17/29/17 18/30/18 6/4/6 
f 7/2/7 19/31/19 17/29/17 5/3/5 
f 8/1/8 20/32/20 19/31/19 7/2/7 
f 6/4/6 18/30/18 20/32/20 8/1/8 
f 17/33/17 21/34/21 22/35/22 18/36/18 
f 19/37/19 23/38/23 21/34/21 17/33/17 
f 20/39/20 24/40/24 23/41/23 19/42/19 
f 18/43/18 22/44/22 24/40/24 20/39/20 
f 21/29/21 9/45/9 12/46/12 22/30/22 
f 23/31/23 13/47/13 9/45/9 21/29/21 
f 24/32/24 15/48/15 13/47/13 23/31/23 
f 22/30/22 12/46/12 15/48/15 24/32/24 
s off
f 11/46/11 10/45/10 25/45/25 26/46/26 
f 10/45/10 14/47/14 27/47/27 25/45/25 
f 14/47/14 16/48/16 28/48/28 27/47/27 
f 16/48/16 11/46/11 26/46/26 28/48/28 
f 25/49/25 29/50/29 30/51/30 26/52/26 
f 27/53/27 31/54/31 29/50/29 25/49/25 
f 28/55/28 32/56/32 31/57/31 27/58/27 
f 26/59/26 30/60/30 32/56/32 28/55/28 
f 33/61/33 34/62/34 35/63/35 
f 36/64/36 34/62/34 33/61/33 
f 37/65/37 34/66/34 36/67/36 
f 35/68/35 34/66/34 37/65/37 
f 29/50/29 33/61/33 35/63/35 30/51/30 
f 31/54/31 36/64/36 33/61/33 29/50/29 
f 32/56/32 37/65/37 36/67/36 31/57/31 
f 30/60/30 35/68/35 37/65/37 32/56/32 
# 33 polygons - 4 triangles

#
# object Varita_3
#

v  -0.0000 12.9216 2.3547
v  -2.3547 12.9216 0.0000
v  -0.0000 12.9216 -2.3547
v  2.3547 12.9216 0.0000
v  -0.0000 15.3436 -2.3547
v  2.3547 15.3437 0.0000
v  -2.3547 15.3436 0.0000
v  -0.0000 15.3436 2.3547
v  -0.0000 30.0468 -2.4876
v  -0.0000 31.6740 -2.4876
v  2.4876 31.6740 0.0000
v  2.4876 30.0468 0.0000
v  -2.4876 30.0468 0.0000
v  -2.4876 31.6740 0.0000
v  0.0000 30.0468 2.4876
v  0.0000 31.6740 2.4876
v  -0.0000 15.4236 -1.5272
v  1.5272 15.4236 0.0000
v  -1.5272 15.4236 0.0000
v  -0.0000 15.4236 1.5272
v  -0.0000 30.0751 -1.5272
v  1.5272 30.0751 0.0000
v  -1.5272 30.0751 0.0000
v  -0.0000 30.0751 1.5272
v  -0.0000 31.6371 -1.6386
v  1.6340 31.6371 -0.0046
v  -1.6340 31.6371 -0.0046
v  0.0000 31.6371 1.6294
v  1.0551 36.4126 -1.6379
v  2.6884 36.4126 -0.0046
v  -0.5782 36.4126 -0.0046
v  1.0551 36.4126 1.6287
v  -1.0418 66.7753 -0.5861
v  -0.0000 71.7846 -0.1192
v  -0.4603 66.7753 -0.0046
v  -1.6234 66.7753 -0.0046
v  -1.0418 66.7753 0.5769
v  0.3548 56.6803 -0.9493
v  1.2995 56.6803 -0.0046
v  -0.5899 56.6803 -0.0046
v  0.3548 56.6803 0.9401
v  -2.4344 46.8242 -1.3395
v  -1.0995 46.8242 -0.0046
v  -3.7693 46.8242 -0.0046
v  -2.4344 46.8242 1.3303
# 45 vertices

vn 0.0001 -0.5774 0.8165
vn -0.8165 -0.5774 -0.0001
vn -0.0000 -0.5774 -0.8165
vn 0.8165 -0.5774 -0.0000
vn -0.0000 0.5507 -0.8347
vn 0.8347 0.5507 -0.0000
vn -0.8347 0.5508 -0.0001
vn 0.0001 0.5508 0.8347
vn -0.0001 -0.5854 -0.8108
vn -0.0000 0.5891 -0.8081
vn 0.8081 0.5890 -0.0000
vn 0.8108 -0.5853 -0.0000
vn -0.8108 -0.5853 0.0000
vn -0.8081 0.5890 -0.0000
vn -0.0001 -0.5854 0.8108
vn -0.0000 0.5890 0.8082
vn 0.0000 0.8675 -0.4974
vn 0.4974 0.8675 -0.0000
vn -0.4974 0.8675 -0.0000
vn 0.0000 0.8675 0.4974
vn -0.0000 -0.9145 -0.4046
vn 0.4046 -0.9145 -0.0000
vn -0.4045 -0.9145 0.0000
vn 0.0000 -0.9145 0.4046
vn -0.0415 0.9215 -0.3862
vn 0.4675 0.8840 0.0003
vn -0.3268 0.9451 0.0003
vn -0.0415 0.9213 0.3865
vn 0.1184 0.0265 -0.9926
vn 0.9983 0.0588 -0.0000
vn -0.9990 -0.0454 0.0000
vn 0.1184 0.0265 0.9926
vn -0.0741 0.0675 -0.9950
vn 0.2019 0.9792 -0.0222
vn 0.9991 0.0432 0.0054
vn -0.9953 0.0970 0.0038
vn -0.0725 0.0883 0.9935
vn 0.0933 0.0238 -0.9954
vn 0.9995 -0.0304 0.0000
vn -0.9933 0.1160 0.0000
vn 0.0933 0.0238 0.9954
vn -0.1325 0.0257 -0.9909
vn 0.9980 0.0639 -0.0000
vn -1.0000 0.0065 0.0000
vn -0.1325 0.0257 0.9909
# 45 vertex normals

vt 0.7925 0.3299 0.0000
vt 0.6660 0.4592 0.0000
vt 0.7925 0.5885 0.0000
vt 0.9189 0.4592 0.0000
vt 0.5599 0.0241 0.0000
vt 0.4888 0.0241 0.0000
vt 0.4888 0.0621 0.0000
vt 0.5599 0.0621 0.0000
vt 0.4178 0.0241 0.0000
vt 0.4178 0.0621 0.0000
vt 0.1391 0.0142 0.0000
vt 0.2108 0.0142 0.0000
vt 0.2108 0.0521 0.0000
vt 0.1391 0.0521 0.0000
vt 0.2825 0.0142 0.0000
vt 0.2825 0.0521 0.0000
vt 0.4884 0.2972 0.0000
vt 0.4884 0.3121 0.0000
vt 0.5630 0.3121 0.0000
vt 0.5630 0.2972 0.0000
vt 0.4137 0.2972 0.0000
vt 0.4137 0.3121 0.0000
vt 0.2107 0.2801 0.0000
vt 0.2107 0.2982 0.0000
vt 0.1350 0.2982 0.0000
vt 0.1350 0.2801 0.0000
vt 0.2863 0.2801 0.0000
vt 0.2863 0.2982 0.0000
vt 0.7925 0.5431 0.0000
vt 0.8745 0.4592 0.0000
vt 0.7105 0.4592 0.0000
vt 0.7925 0.3753 0.0000
vt 0.4888 0.0633 0.0000
vt 0.4888 0.2930 0.0000
vt 0.5349 0.2930 0.0000
vt 0.5349 0.0633 0.0000
vt 0.4427 0.0633 0.0000
vt 0.4427 0.2930 0.0000
vt 0.2108 0.0534 0.0000
vt 0.2108 0.2828 0.0000
vt 0.1643 0.2828 0.0000
vt 0.1643 0.0534 0.0000
vt 0.2573 0.0534 0.0000
vt 0.2573 0.2828 0.0000
vt 0.7925 0.5958 0.0000
vt 0.9261 0.4592 0.0000
vt 0.6589 0.4592 0.0000
vt 0.7925 0.3226 0.0000
vt 0.7925 0.5492 0.0000
vt 0.8802 0.4595 0.0000
vt 0.7047 0.4595 0.0000
vt 0.7925 0.3697 0.0000
vt 0.4888 0.3175 0.0000
vt 0.5207 0.3923 0.0000
vt 0.5699 0.3923 0.0000
vt 0.5381 0.3175 0.0000
vt 0.4395 0.3175 0.0000
vt 0.4714 0.3923 0.0000
vt 0.2108 0.3072 0.0000
vt 0.2429 0.3820 0.0000
vt 0.1932 0.3820 0.0000
vt 0.1610 0.3072 0.0000
vt 0.2606 0.3072 0.0000
vt 0.2927 0.3820 0.0000
vt 0.4574 0.8682 0.0000
vt 0.4888 0.9467 0.0000
vt 0.4749 0.8682 0.0000
vt 0.4398 0.8682 0.0000
vt 0.1790 0.8573 0.0000
vt 0.2108 0.9358 0.0000
vt 0.1613 0.8573 0.0000
vt 0.1968 0.8573 0.0000
vt 0.4995 0.7100 0.0000
vt 0.5280 0.7100 0.0000
vt 0.4710 0.7100 0.0000
vt 0.2216 0.6993 0.0000
vt 0.1928 0.6993 0.0000
vt 0.2504 0.6993 0.0000
vt 0.4154 0.5555 0.0000
vt 0.4556 0.5555 0.0000
vt 0.3751 0.5555 0.0000
vt 0.1366 0.5450 0.0000
vt 0.0960 0.5450 0.0000
vt 0.1773 0.5450 0.0000
# 84 texture coords

o Varita_3
g Varita_3
usemtl 02___Default
s 1
f 38/69/38 39/70/39 40/71/40 41/72/41 
s 8
f 41/73/41 40/74/40 42/75/42 43/76/43 
f 40/74/40 39/77/39 44/78/44 42/75/42 
f 39/79/39 38/80/38 45/81/45 44/82/44 
f 38/80/38 41/83/41 43/84/43 45/81/45 
f 46/85/46 47/86/47 48/87/48 49/88/49 
f 50/89/50 51/90/51 47/86/47 46/85/46 
f 52/91/52 53/92/53 51/93/51 50/94/50 
f 49/95/49 48/96/48 53/92/53 52/91/52 
f 42/71/42 54/97/54 55/98/55 43/72/43 
f 44/70/44 56/99/56 54/97/54 42/71/42 
f 45/69/45 57/100/57 56/99/56 44/70/44 
f 43/72/43 55/98/55 57/100/57 45/69/45 
f 54/101/54 58/102/58 59/103/59 55/104/55 
f 56/105/56 60/106/60 58/102/58 54/101/54 
f 57/107/57 61/108/61 60/109/60 56/110/56 
f 55/111/55 59/112/59 61/108/61 57/107/57 
f 58/97/58 46/113/46 49/114/49 59/98/59 
f 60/99/60 50/115/50 46/113/46 58/97/58 
f 61/100/61 52/116/52 50/115/50 60/99/60 
f 59/98/59 49/114/49 52/116/52 61/100/61 
s off
f 48/114/48 47/113/47 62/117/62 63/118/63 
f 47/113/47 51/115/51 64/119/64 62/117/62 
f 51/115/51 53/116/53 65/120/65 64/119/64 
f 53/116/53 48/114/48 63/118/63 65/120/65 
f 62/121/62 66/122/66 67/123/67 63/124/63 
f 64/125/64 68/126/68 66/122/66 62/121/62 
f 65/127/65 69/128/69 68/129/68 64/130/64 
f 63/131/63 67/132/67 69/128/69 65/127/65 
f 70/133/70 71/134/71 72/135/72 
f 73/136/73 71/134/71 70/133/70 
f 74/137/74 71/138/71 73/139/73 
f 72/140/72 71/138/71 74/137/74 
f 75/141/75 70/133/70 72/135/72 76/142/76 
f 77/143/77 73/136/73 70/133/70 75/141/75 
f 78/144/78 74/137/74 73/139/73 77/145/77 
f 76/146/76 72/140/72 74/137/74 78/144/78 
f 79/147/79 75/141/75 76/142/76 80/148/80 
f 81/149/81 77/143/77 75/141/75 79/147/79 
f 82/150/82 78/144/78 77/145/77 81/151/81 
f 80/152/80 76/146/76 78/144/78 82/150/82 
f 66/122/66 79/147/79 80/148/80 67/123/67 
f 68/126/68 81/149/81 79/147/79 66/122/66 
f 69/128/69 82/150/82 81/151/81 68/129/68 
f 67/132/67 80/152/80 82/150/82 69/128/69 
# 41 polygons - 4 triangles

